<svg width="571" height="404" viewBox="0 0 571 404" fill="none" xmlns="http://www.w3.org/2000/svg">
<circle cx="174.724" cy="294.032" r="42.9266" stroke="#400035" stroke-width="0.49099"/>
<circle cx="395.389" cy="114.188" r="42.9266" stroke="#400035" stroke-width="0.49099"/>
<circle cx="276.079" cy="144.072" r="101.845" fill="#FFF1D6"/>
<path d="M277.552 73.055L283.163 76.1412V102.865L238.413 105.951L237.361 80.4199L242.972 76.6673L243.498 64.638L277.552 61.9727V73.055Z" fill="#FE9781"/>
<path d="M190.822 99.9878L208.568 94.7272L238.15 79.4889C238.15 79.4889 240.061 99.348 259.525 99.9878C276.5 100.546 282.321 75.7539 282.321 75.7539L307.362 82.4173H326.3L339.206 122.714L324.266 127.588L320.689 168.06V224.349H225.963L222.21 168.06L215.617 138.215L186.333 132.183L190.822 99.9878Z" fill="#FFC95D"/>
<path d="M259.561 99.4258V119.1V128.254" stroke="#400035" stroke-width="0.49099"/>
<ellipse cx="262.542" cy="106.861" rx="0.841698" ry="0.876768" fill="#400035"/>
<ellipse cx="262.752" cy="115.978" rx="0.841698" ry="0.876768" fill="#400035"/>
<ellipse cx="262.752" cy="124.396" rx="0.841698" ry="0.876768" fill="#400035"/>
<path d="M238.475 56.5212L240.122 43.322L237.326 24.6898L240.122 21.5685L240.413 15.8502C240.806 8.11467 248.732 3.09366 255.894 6.04277L284.145 17.6757L280.544 22.796L282.462 25.5666L278.025 42.372L279.988 55.6323C280.351 58.0892 280.021 60.5989 279.035 62.8782L271.847 79.4813C270.07 83.5876 266.023 86.2455 261.548 86.2455H256.412C251.875 86.2455 247.785 83.5139 246.046 79.3233L239.39 63.278C238.504 61.1432 238.189 58.8147 238.475 56.5212Z" fill="#400035"/>
<path d="M252.227 69.5587L241.512 55.4758L240.811 27.9648H278.758L277.355 56.0022L266.918 69.5587L263.54 64.8222H257.826L252.227 69.5587Z" fill="#FE9781"/>
<ellipse cx="251.985" cy="45.2425" rx="1.57818" ry="1.47297" fill="#400035"/>
<ellipse cx="266.014" cy="45.2425" rx="1.57818" ry="1.47297" fill="#400035"/>
<path d="M268.801 64.8503H250.53L251.313 63.3368C252.873 60.3242 256.535 59.0831 259.605 60.5265L268.801 64.8503Z" fill="white"/>
<path d="M273.903 37.305L266.258 34.7098L266.708 34.0712C267.782 32.5465 270.018 32.4755 271.187 33.9289L273.903 37.305Z" fill="#400035"/>
<path d="M246.28 37.3597L253.925 34.7645L253.475 34.1259C252.401 32.6012 250.165 32.5302 248.996 33.9836L246.28 37.3597Z" fill="#400035"/>
<circle cx="250.511" cy="45.3209" r="7.54021" stroke="#400035" stroke-width="0.49099"/>
<circle cx="268.703" cy="45.3209" r="7.54021" stroke="#400035" stroke-width="0.49099"/>
<rect x="280.156" y="40.7272" width="10.6615" height="32.2651" transform="rotate(16.5808 280.156 40.7272)" fill="white" stroke="#400035" stroke-width="0.49099"/>
<path d="M278.396 74.1919V66.309L273.589 63.9L275.868 56.1494L280.032 56.5283L286.018 60.8785L282.924 50.316C282.496 48.857 283.346 47.3307 284.811 46.9258L290.633 62.3569L291.976 74.1919L342.924 128.968L339.945 170.018L309.186 147.626L283.302 76.9071L278.396 74.1919Z" fill="#FE9781"/>
<path d="M259.266 57.3585L261.272 56.4569C263.577 55.4207 266.292 56.3038 267.547 58.4978L271.894 66.0985L259.266 59.9611C255.66 59.013 251.872 60.6403 250.077 63.9083L248.045 67.6066L249.936 59.1291C250.693 55.7346 254.641 54.1814 257.508 56.1508L259.266 57.3585Z" fill="#400035"/>
<path d="M287.442 127.414H307.397" stroke="#400035" stroke-width="0.49099"/>
<circle cx="128.782" cy="190.713" r="101.845" fill="#BC9C8E"/>
<path d="M103.636 204.323V236.903L111.667 240.446L113.14 250.721L127.063 268.292L138.391 291.789C140.46 292.222 147.895 292.098 161.082 288.142C174.269 284.186 184.556 278.076 188.051 275.516L206.709 258.682L192.751 234.799L185.105 219.543L205.622 197.063L184.088 178.756L155.576 170.059L142.109 191.241L124.117 198.326L131.763 178.756L118.541 193.696L103.636 204.323Z" fill="#FFC95D"/>
<path d="M238.955 237.575L205.484 196.532L184.802 219.581L193.499 236.097L215.099 251.007L232.663 326.341L226.266 340.139L229.404 342.395L237.619 335.116L231.815 352.679L240.917 356.782L248.471 340.554L246.844 325.282L238.955 237.575Z" fill="#FE9781"/>
<path d="M126.444 284.888L126.519 266.395L113.245 249.665L111.527 238.583L104.491 236.969L104.746 237.718L99.7171 250.728L103.522 272.306L95.7887 271.814L60.253 292.44L49.2084 287.678L43.3329 288.714L48.1881 294.567L48.8926 298.563L34.0611 301.178L30.2743 305.053L41.9414 306.174L62.0495 302.628L126.444 284.888Z" fill="#FE9781"/>
<path d="M156.137 173.353L148.947 137.09L137.585 140.001L140.004 155.993L134.007 166.304L133.131 176.439L121.627 200.813L144.143 194.29L156.137 173.353Z" fill="#FE9781"/>
<path d="M110.72 148.557L108.055 144.735L108.055 134.528L123.451 131.723L124.994 137.825L136.953 145.47L138.356 153.502L120.54 167.881L119.137 175.912L113.035 172.72L113.035 169.915L117.489 165.847L111.323 161.11L107.179 161.841L110.72 148.557Z" fill="#FE9781"/>
<path d="M138.286 143.543L107.722 150.96M107.722 150.96L109.879 157.08M107.722 150.96L105.565 144.841" stroke="#400035" stroke-width="0.49099"/>
<path d="M110.762 161.119L109.844 161.436L109.928 164.102L119.969 168.134L117.604 163.78C116.28 161.341 113.386 160.216 110.762 161.119Z" fill="#400035"/>
<path d="M111.631 136.037L113.425 135.669L148.982 129.4C150.831 123.554 146.675 117.532 140.554 117.187L103.566 115.1L100.525 119.819C95.4106 127.758 102.38 137.936 111.631 136.037Z" fill="#400035"/>
<path d="M111.247 170.988L113.21 169.777L113.701 172.443L119.067 175.073L120.365 167.568L137.094 153.377L140.531 152.172L142.271 162.53L123.825 191.084C121.224 195.11 115.166 194.528 113.379 190.081C111.776 186.091 111 181.817 111.098 177.518L111.247 170.988Z" fill="#400035"/>
<path d="M153.779 133.684L149.095 129.382L123.1 133.684L124.117 138.845L135.445 146.245L136.848 153.89L140.776 153.118L139.759 146.245L147.167 157.175L151.203 166.189L155.453 165.439L153.779 133.684Z" fill="#400035"/>
<path d="M143.561 158.131L141.972 158.412L139.78 145.978L141.369 145.698C144.802 145.092 148.076 147.385 148.682 150.818C149.287 154.252 146.995 157.526 143.561 158.131Z" fill="#FE9781"/>
<ellipse cx="114.929" cy="149.192" rx="1.57818" ry="1.47297" fill="#400035"/>
<rect x="20.308" y="294.347" width="36.4736" height="6.24259" fill="white" stroke="#400035" stroke-width="0.49099"/>
<rect x="39.632" y="294.102" width="17.3951" height="6.73358" fill="#400035"/>
<circle cx="447.364" cy="198.92" r="101.845" fill="#BC9C8E"/>
<path d="M405.279 182.754L414.503 173.039L437.018 178.861L458.552 225.926L456.623 243.321L444.664 259.944L432.424 299.925C416.32 299.476 394.197 286.505 385.149 280.075L387.744 217.93L385.149 205.515L390.97 187.453L405.279 182.754Z" fill="#FFC95D"/>
<circle cx="283.794" cy="266.888" r="101.845" fill="#FFF1D6"/>
<circle cx="283.794" cy="266.888" r="101.845" fill="#FFF1D6"/>
<path d="M288.178 293.577L317.883 280.25H337.102L371.576 286.352H383.992C380.683 298.709 372.804 326.719 347.974 345.973C326.171 362.879 299.413 368.383 288.178 368.313L282.392 348.428L278.814 351.584L254.861 322.37L267.276 297.084L288.178 293.577Z" fill="#FFC95D"/>
<path d="M326.791 302.379V322.054V331.207" stroke="#400035" stroke-width="0.49099"/>
<ellipse cx="329.772" cy="309.814" rx="0.841698" ry="0.876768" fill="#400035"/>
<ellipse cx="329.982" cy="318.931" rx="0.841698" ry="0.876768" fill="#400035"/>
<ellipse cx="329.982" cy="327.349" rx="0.841698" ry="0.876768" fill="#400035"/>
<path d="M225.367 279.618L222.666 291.472L246.76 340.43L254.616 321.983L278.814 350.531L244.62 393.773L225.367 359.193L210.777 301.362L207.025 294.032L202.43 279.618H218.002L217.315 275.161C216.915 272.569 218.341 270.041 220.765 269.042L221.824 268.605L225.367 279.618Z" fill="#FE9781"/>
<path d="M234.415 287.019V358.809H187.034V287.019H234.415Z" fill="white" stroke="#400035" stroke-width="0.49099"/>
<path d="M195.03 318.898H225.542M195.03 322.406H225.542M195.03 325.913H225.542M195.03 329.911H225.542M195.03 333.418H225.542M195.03 336.925H225.542M195.03 340.853H225.542M195.03 344.36H225.542M195.03 347.867H225.542" stroke="#400035" stroke-width="0.49099"/>
<path d="M203.496 314.934V307.418L205.723 311.476M205.723 314.934V307.418M206.882 307.418H208.623M210.363 307.418H208.623M208.623 307.418V314.934M211.384 314.934V312.274M211.384 312.274V307.418H213.725V312.274H212.629M211.384 312.274H212.629M212.629 312.274L213.725 314.934M215.314 314.934V312.241M217.85 314.934V312.241M217.85 312.241V309.547L216.698 307.418L215.314 309.547V312.241M217.85 312.241H215.314M222.722 307.219H224.115M225.507 307.219H224.115M224.115 307.219V314.934M221.423 308.446V307.219H219.196V314.801H221.423V313.356M198.39 308.902V307.418H196.118V314.934H198.39V313.356M199.783 314.934V307.418H202.01V314.934H199.783Z" stroke="#400035" stroke-width="0.49099" stroke-linecap="round" stroke-linejoin="round"/>
<path d="M490.883 229.554L417.161 321.046L398.335 239.92L436.036 227.31L443.507 234.449L444.893 244.853L479.413 221.272L484.663 208.739L493.868 206.077L489.008 212.132L506.544 211.408L498.743 227.31L490.883 229.554Z" fill="#FE9781"/>
<path d="M504.354 215.441L498.848 216.494M502.531 219.58L498.147 220.772M500.286 224.139L496.814 225.086" stroke="#400035" stroke-width="0.49099"/>
<path d="M414.468 173.181L421.543 131.883L432.905 134.794L430.486 150.786L443.822 168.146L437.895 181.177L445.155 196.924L441.016 197.941L414.468 173.181Z" fill="#FE9781"/>
<path d="M459.955 143.054L462.435 140.263L462.435 129.321L447.039 126.516L445.496 132.618L433.537 140.263L432.134 148.295L449.95 162.674L451.353 170.705L457.455 167.513L457.455 164.708L453.001 160.639L459.167 155.903L463.311 156.634L459.955 143.054Z" fill="#FE9781"/>
<ellipse cx="454.624" cy="142.739" rx="1.57818" ry="1.47297" fill="#400035"/>
<path d="M459.728 155.912L460.646 156.229L460.562 158.895L450.521 162.927L452.886 158.573C454.21 156.134 457.104 155.009 459.728 155.912Z" fill="#400035"/>
<path d="M458.859 130.83L457.065 130.462L421.508 124.192C419.659 118.347 423.815 112.325 429.936 111.98L466.924 109.893L469.965 114.612C475.079 122.551 468.11 132.729 458.859 130.83Z" fill="#400035"/>
<path d="M459.243 165.781L457.28 164.57L456.789 167.236L451.423 169.866L450.125 162.361L433.396 148.17L429.96 146.965L428.219 157.323L446.665 185.877C449.266 189.903 455.324 189.321 457.111 184.874C458.714 180.884 459.49 176.61 459.392 172.311L459.243 165.781Z" fill="#400035"/>
<path d="M416.711 128.477L421.395 124.175L447.39 128.477L446.373 133.638L435.045 141.038L433.642 148.683L429.714 147.911L430.731 141.038L423.323 151.968L419.287 160.982L415.037 160.232L416.711 128.477Z" fill="#400035"/>
<path d="M426.929 152.924L428.518 153.205L430.71 140.771L429.121 140.491C425.688 139.885 422.414 142.178 421.808 145.611C421.203 149.045 423.496 152.319 426.929 152.924Z" fill="#FE9781"/>
<path d="M528.033 242.729L511.009 211.931L506.077 209.276L503.793 211.62L488.818 212.217L495.198 204.348L486.028 199.413L491.411 189.408L516.007 202.644L549.206 203.384L528.033 242.729Z" fill="#E8554F"/>
<path d="M202.43 279.617H216.178V285.579L213.443 296.591H200.607L198.748 285.579L202.43 279.617Z" fill="#FE9781"/>
<path d="M304.778 263.65V248.404L304.381 232.657L307.362 227.747L307.243 225.788C306.68 216.525 315.967 209.84 324.572 213.315L350.85 223.925L347.167 229.045L349.201 232.166L348.114 249.035L347.404 263.262C347.324 264.858 346.958 266.426 346.324 267.892L338.587 285.765C336.809 289.872 332.762 292.53 328.288 292.53H323.152C318.615 292.53 314.524 289.798 312.786 285.607L305.795 268.757C305.124 267.138 304.778 265.403 304.778 263.65Z" fill="#400035"/>
<path d="M318.966 275.844L308.252 261.761L307.55 234.25H345.497L344.094 262.287L333.657 275.844L328.825 272.605H323.915L318.966 275.844Z" fill="#FE9781"/>
<path d="M333.104 270.323H318.444L318.524 270.179C320.104 267.321 323.603 266.141 326.592 267.456L333.104 270.323Z" fill="white"/>
<path d="M340.643 243.594L332.997 240.999L333.447 240.36C334.522 238.836 336.758 238.765 337.927 240.218L340.643 243.594Z" fill="#400035"/>
<path d="M313.019 243.645L320.665 241.05L320.215 240.411C319.14 238.886 316.904 238.815 315.735 240.269L313.019 243.645Z" fill="#400035"/>
<circle cx="317.251" cy="251.61" r="7.54021" stroke="#400035" stroke-width="0.49099"/>
<circle cx="335.443" cy="251.61" r="7.54021" stroke="#400035" stroke-width="0.49099"/>
<path d="M326.076 263.64L328.081 262.738C330.387 261.702 333.102 262.585 334.357 264.779L338.703 272.38L326.076 266.242C322.47 265.294 318.681 266.922 316.886 270.19L314.855 273.888L316.745 265.41C317.502 262.016 321.451 260.463 324.318 262.432L326.076 263.64Z" fill="#400035"/>
<path d="M286.074 320.02L287.652 325.035L283.058 348.392" stroke="#400035" stroke-width="0.49099"/>
<path d="M445.12 244.934L434.704 251.316L431.512 262.504" stroke="#400035" stroke-width="0.49099"/>
<path d="M393.425 218.983L398.511 239.85M436.107 227.155L438.456 213.547L427.76 200.852" stroke="#400035" stroke-width="0.49099"/>
<path d="M103.355 271.097H109.528M111.808 238.622L110.685 226.137" stroke="#400035" stroke-width="0.49099"/>
<path d="M246.935 340.641L248.408 344.007V352.635" stroke="#400035" stroke-width="0.49099"/>
<path d="M203.447 296.136L202.465 287.088L205.306 279.898M206.674 296.136V287.088L209.024 279.898M210.391 296.136V287.088L212.39 279.898M218.142 279.898L218.528 281.231L217.23 287.088" stroke="#400035" stroke-width="0.49099"/>
<path d="M431.723 137.234L462.287 144.652M462.287 144.652L460.13 150.772M462.287 144.652L464.444 138.532" stroke="#400035" stroke-width="0.49099"/>
<ellipse cx="318.409" cy="250.684" rx="1.57818" ry="1.47297" fill="#400035"/>
<ellipse cx="332.437" cy="250.684" rx="1.57818" ry="1.47297" fill="#400035"/>
<path d="M129.659 198.605V218.28L133.902 228.275" stroke="#400035" stroke-width="0.49099"/>
<ellipse cx="132.64" cy="206.041" rx="0.841698" ry="0.876768" fill="#400035"/>
<ellipse cx="132.85" cy="215.158" rx="0.841698" ry="0.876768" fill="#400035"/>
<ellipse cx="135.375" cy="223.717" rx="0.841698" ry="0.876768" fill="#400035"/>
<path d="M147.299 223.752L168.131 219.648" stroke="#400035" stroke-width="0.49099"/>
<path d="M358.109 322.547H369.051" stroke="#400035" stroke-width="0.49099"/>
<path d="M384.482 286.562H389.147L405.876 385.358L331.771 386.621H304.205V382.658M315.393 367.578L314.025 368.84L307.081 376.135L298.574 379.37C296.368 380.209 295.21 382.635 295.946 384.878L296.104 385.358L304.205 382.097M380.134 360.318L366.596 355.689L329.772 368.384L320.829 361.475M304.205 382.097L309.326 380.554L311.601 378.59M304.205 382.097V382.658M316.761 374.136L311.601 378.59M304.205 382.658L318.479 382.412M311.601 378.59L318.304 378.414M305.503 370.313L303.024 372.562C301.027 374.373 297.858 373.818 296.595 371.435V371.435L306.415 364.176L313.569 362.071" stroke="#400035" stroke-width="0.49099"/>
<path d="M297.121 378.73L293.474 386.692L296.315 385.183M297.121 378.73L327.317 348.289L330.789 350.99L315.077 367.683M297.121 378.73L298.103 379.467" stroke="#400035" stroke-width="0.49099"/>
<rect x="168.482" y="37.3164" width="55.4118" height="14.7297" stroke="#400035" stroke-width="0.49099"/>
<ellipse cx="175.706" cy="44.5057" rx="0.841698" ry="0.876768" fill="#400035"/>
<ellipse cx="182.721" cy="44.5057" rx="0.841698" ry="0.876768" fill="#400035"/>
<ellipse cx="189.033" cy="44.5057" rx="0.841698" ry="0.876768" fill="#400035"/>
<ellipse cx="196.047" cy="44.5057" rx="0.841698" ry="0.876768" fill="#400035"/>
<path d="M337.382 48.75H359.056M337.382 48.75V64.8825H359.056V48.75M337.382 48.75L348.36 59.2011L359.056 48.75" stroke="#400035" stroke-width="0.49099"/>
<circle r="7.47007" transform="matrix(1 0 0 -1 496.639 128.674)" stroke="#400035" stroke-width="0.49099"/>
<circle r="4.76962" transform="matrix(1 0 0 -1 512.946 150.945)" stroke="#400035" stroke-width="0.49099"/>
<circle r="5.47103" transform="matrix(1 0 0 -1 538.548 124.994)" stroke="#400035" stroke-width="0.49099"/>
<path d="M500.391 135.302L509.79 147.016M517.085 148.664L535.287 129.06" stroke="#400035" stroke-width="0.49099"/>
<rect x="251.459" y="218.84" width="17.6756" height="15.5714" stroke="#400035" stroke-width="0.49099"/>
<rect width="9.67952" height="15.5714" transform="matrix(-1 0 0 1 278.814 218.84)" stroke="#400035" stroke-width="0.49099"/>
<path d="M254.581 223.82H265.908M254.581 226.801H265.908M254.581 229.537H265.908" stroke="#400035" stroke-width="0.49099"/>
<path d="M251.073 214.562H266.61" stroke="#400035" stroke-width="0.49099"/>
<path d="M272.817 223.82H275.027M272.817 226.801H275.027M272.817 229.537H275.027" stroke="#400035" stroke-width="0.49099"/>
<path d="M272.817 237.148H275.027M272.817 240.129H275.027" stroke="#400035" stroke-width="0.49099"/>
<rect x="247.391" y="204.039" width="34.6499" height="43.4176" stroke="#400035" stroke-width="0.49099"/>
<path d="M285.373 208.949H287.652V252.367H253.002V250.333" stroke="#400035" stroke-width="0.49099"/>
<rect x="274.886" y="386.691" width="64.6003" height="16.6235" stroke="#400035" stroke-width="0.49099"/>
<rect x="333.104" y="386.691" width="6.38287" height="16.6235" stroke="#400035" stroke-width="0.49099"/>
<circle cx="238.343" cy="263.66" r="4.83976" stroke="#400035" stroke-width="0.49099"/>
<circle cx="223.332" cy="240.516" r="4.83976" stroke="#400035" stroke-width="0.49099"/>
<rect x="181.879" y="133.898" width="10.7316" height="10.7316" stroke="#400035" stroke-width="0.49099"/>
<rect x="372.523" y="164.34" width="10.7316" height="10.7316" stroke="#400035" stroke-width="0.49099"/>
</svg>
