<svg width="283" height="242" viewBox="0 0 283 242" fill="none" xmlns="http://www.w3.org/2000/svg">
<path d="M101.538 221.789H130.523C135.713 221.789 139.466 216.83 138.056 211.835L126.202 169.855C125.25 166.483 122.173 164.155 118.67 164.155H41.6329C36.443 164.155 32.6902 169.114 34.1005 174.108L45.9542 216.089C46.9062 219.46 49.983 221.789 53.4866 221.789H63.0237" stroke="black" stroke-width="0.711534"/>
<path d="M97.3324 234.952L106.959 199.376H68.4194L58.7928 234.952H97.3324Z" stroke="black" stroke-width="0.711534"/>
<path d="M163.991 238.51L165.77 224.991V206.491" stroke="black" stroke-width="0.711534" stroke-linecap="round"/>
<path d="M165.77 218.587H172.529L169.327 210.404L165.77 206.135V218.587Z" fill="#2E4C5C"/>
<path d="M41.9284 90.1548L51.2129 121.462H10.6986L0.69397 90.1548H41.9284Z" fill="#2AB46F"/>
<path d="M88.7686 90.1548L98.1738 121.462H57.0989L46.9434 90.1548H88.7686Z" fill="#2AB46F"/>
<path d="M46.198 87.3086L55.4824 118.616H14.9681L4.9635 87.3086H46.198Z" stroke="black" stroke-width="0.711534"/>
<path d="M93.0382 87.3086L102.443 118.616H61.3684L51.2129 87.3086H93.0382Z" stroke="black" stroke-width="0.711534"/>
<path d="M88.9238 125.731H29.155" stroke="black" stroke-width="0.711534"/>
<path d="M90.3477 132.135H31.2903" stroke="black" stroke-width="0.711534"/>
<path d="M249.472 184.077L246.885 221.616L254 241" stroke="black" stroke-width="0.711534"/>
<path d="M214.866 221.789L249.02 184.789L246.299 221.789H214.866Z" fill="#2E4C5C"/>
<path d="M214.447 221.726L224.707 211.116L240.125 240.289H182.135L168.972 210.048L185.457 227.694C190.44 233.029 198.652 233.727 204.465 229.311L214.447 221.726Z" fill="#2AB46F"/>
<path d="M274.635 240.289H56.1938" stroke="black" stroke-width="0.711534"/>
<path d="M223.423 134.817C231.448 126.92 241.04 117.171 245.984 111.003L268.3 126.288C280.156 134.409 281.833 151.254 271.809 161.552L245.984 188.086L218.85 157.561L196.342 178.527L159.151 129.865L185.749 122.337L182.461 136.172C181.066 142.044 188.769 147.68 194.806 147.68C206.71 147.68 214.938 143.167 223.423 134.817Z" fill="#2E4C5C"/>
<path d="M152.868 130.119L187.757 121.082L190.793 167.427L197.576 178.219L190.793 185.31L152.868 130.119Z" fill="#2AB46F"/>
<path d="M199.337 198.115L190.487 185.067M190.487 185.067L147.177 121.216L135.089 99.8105H115.674H91.3066V99.8105C91.3066 103.887 94.6114 107.192 98.688 107.192H113.109L115.674 135.979L127.03 138.287V132.658L133.623 139.301L159.037 194.04C162.318 201.106 166.737 207.586 172.118 213.221L187.409 229.231C191.324 233.33 197.657 233.925 202.266 230.628L213.036 222.923C213.938 222.278 214.777 221.547 215.54 220.742L268.592 164.743M190.487 185.067L239.485 135.979" stroke="black" stroke-width="0.711534"/>
<path d="M154.873 129.979L138.012 161.212M156.62 132.849L139.759 164.082M158.682 135.377L141.506 166.952M160.065 137.28L143.253 169.822M161.447 139.183L149.463 178.059" stroke="black" stroke-width="0.711534"/>
<path d="M175.874 20.1367C167.254 31.8596 167.944 51.5126 173.805 57.374C173.115 53.5813 172.771 52.8918 172.771 50.823C173.46 48.0647 173.46 41.8585 180.356 39.4449C188.823 37.3198 191.286 32.336 192.531 28.4174C193.78 31.8003 192.616 38.7523 204.65 39.8706C217.594 41.0735 221.326 50.5489 229.451 56.2852C233.504 59.1468 236.526 58.6038 237.246 57.3741C240.349 63.5803 237.042 67.2482 235.178 71.5105C233.738 74.8016 233.109 74.6136 231.385 74.9583C231.385 78.4062 232.074 90.8186 232.074 95.9905C232.764 100.473 236.212 103.168 243.108 104.265C250.003 105.363 257.478 100.291 260.002 94.6113C265.213 82.8884 258.623 71.5105 248.624 68.0626C246.556 67.3492 251.767 64.2699 250.003 56.2852C248.937 51.4582 243.78 51.8575 244.142 49.7888C245.409 42.5482 248.059 32.0326 242.425 20.7726C235.666 7.26351 216.515 0.269813 203.952 5.40068C193.304 4.46913 182.84 10.6628 175.874 20.1367Z" fill="#2E4C5C"/>
<path d="M231.231 74.501L232.062 98.701C232.206 102.893 234.824 106.6 238.727 108.137L245.462 110.789" stroke="black" stroke-width="0.711534" stroke-linecap="round" stroke-linejoin="round"/>
<path d="M198.638 55.8208C201.31 52.1858 209.139 51.2044 210.817 53.3043M178.383 57.7776C178.889 55.6567 184.254 54.4227 187.889 57.7776M193.013 63.3848L190.98 75.4265C190.494 78.3017 192.897 80.8418 195.794 80.5169L198.638 80.1981" stroke="black" stroke-width="0.711534" stroke-linecap="round" stroke-linejoin="round"/>
<path d="M191.489 88.7864C192.674 89.1442 202.708 88.6286 208.228 82.135M208.228 82.135L208.632 82.7919M208.228 82.135L207.824 81.4781" stroke="black" stroke-width="0.711534" stroke-linecap="round" stroke-linejoin="round"/>
<path d="M194.537 92.6699C196.284 92.8632 198.513 93.2872 201.03 91.0504" stroke="black" stroke-width="0.711534" stroke-linecap="round" stroke-linejoin="round"/>
<path d="M172.771 51.1676C172.874 54.3443 176.146 66.7987 176.146 66.7987L176.067 71.771C175.967 78.0082 177.619 84.1484 180.835 89.4934L185.538 97.3083C190.013 104.746 199.446 107.505 207.223 103.651L212.554 101.01C221.037 96.8069 227.108 88.9257 229.006 79.6503L229.98 74.8895V74.8895C232.197 75.3297 234.414 74.1351 235.265 72.042L237.908 65.5452C239.955 60.5123 236.463 54.9546 231.04 54.6156V54.6156" stroke="black" stroke-width="0.711534" stroke-linecap="round" stroke-linejoin="round"/>
<ellipse cx="204.004" cy="62.4233" rx="1.03437" ry="2.41352" transform="rotate(-5 204.004 62.4233)" fill="#2E4C5C"/>
<ellipse cx="186.144" cy="63.9861" rx="1.03437" ry="2.41352" transform="rotate(-5 186.144 63.9861)" fill="#2E4C5C"/>
<path d="M196.384 26.748C196.132 30.4618 200.689 33.2243 207.38 33.7464C215.743 34.3991 213.192 48.7126 217.396 53.2903C221.222 57.455 227.568 54.8232 230.401 47.6532" stroke="black" stroke-width="0.711534" stroke-linecap="round" stroke-linejoin="round"/>
<path d="M193.232 24.2629C193.743 30.102 172.098 33.1532 173.306 46.0804C173.787 51.2299 181.181 50.583 180.639 46.4771C180.052 42.0291 173.826 39.805 173.276 45.3908C173.504 51.9469 175.492 60.4094 171 62.8952" stroke="black" stroke-width="0.711534" stroke-linecap="round" stroke-linejoin="round"/>
<path d="M247.062 67.1568C252.504 64.5799 261.241 68.4962 262.071 74.9593C262.812 80.7299 257.461 84.4672 250.348 82.8895C239.03 80.3785 242.722 70.6068 252.325 76.0329C258.968 79.7863 256.899 89.0957 251.507 90.13C242.937 91.7738 237.354 85.1757 237.591 79.7863M244.142 39.7908C246.096 40.3655 249.905 42.5491 248.28 46.3418C246.654 50.1345 242.418 53.9272 237.591 55.9959" stroke="black" stroke-width="0.711534" stroke-linecap="round" stroke-linejoin="round"/>
<path d="M182.136 122.885L195.108 119.105C199.227 117.905 202.059 114.129 202.059 109.839V105.809" stroke="black" stroke-width="0.711534" stroke-linecap="round" stroke-linejoin="round"/>
<path d="M230.899 60.9819V64.1838L231.052 64.2576C232.544 64.9771 232.166 67.2005 230.52 67.3857V67.3857" stroke="black" stroke-width="0.711534" stroke-linecap="round" stroke-linejoin="round"/>
</svg>
