<svg width="437" height="631" viewBox="0 0 437 631" fill="none" xmlns="http://www.w3.org/2000/svg">
<path d="M162.774 480.991H211.554C218.93 480.991 224.263 473.943 222.259 466.845L202.273 396.064C200.92 391.272 196.547 387.963 191.568 387.963H64.0849C56.7088 387.963 51.3753 395.011 53.3797 402.11L73.3654 472.89C74.7184 477.682 79.0912 480.991 84.0706 480.991H100.607" stroke="black" stroke-width="1.01125"/>
<path d="M156.035 502.307L171.611 444.745H109.262L93.686 502.307H156.035Z" stroke="black" stroke-width="1.01125"/>
<path d="M263.579 507.981L266.45 486.159V456.299" stroke="black" stroke-width="1.01125" stroke-linecap="round"/>
<path d="M266.451 475.823H277.362L272.194 462.616L266.451 455.725V475.823Z" fill="#2E4C5C"/>
<path d="M221.008 272.351V0.5H436.5V630.5H221.008V535" stroke="black"/>
<path d="M220.5 80.5H296.5V61.5M296.5 61.5H220.5M296.5 61.5L220.5 10" stroke="black"/>
<path d="M360.5 0.5C358 8.66667 356.6 26.2 371 31C386 31 399.5 49 391.5 68C386.237 80.5 382.5 83.5 371 83C349 82.0435 368 137.5 388.5 118.5C399.695 108.124 410.5 109.5 425 121.5C436.6 131.1 433.5 151 436.5 160.5M384 0.5C383.167 7.83333 385.6 21.2 402 16C427 8.07312 442.5 48.5 427 70C416.617 84.4027 399.207 78.0645 400.5 91C402 106 430.5 83 436.5 99.5" stroke="black"/>
<path d="M66.5569 268.52L81.543 319.053H16.1484L-0.000144958 268.52H66.5569Z" fill="#2AB46F"/>
<path d="M142.16 268.52L157.341 319.053H91.0418L74.6497 268.52H142.16Z" fill="#2AB46F"/>
<path d="M73.447 263.926L88.4331 314.46H23.0385L6.88999 263.926H73.447Z" stroke="black" stroke-width="1.01125"/>
<path d="M149.052 263.926L164.233 314.46H97.9339L81.5418 263.926H149.052Z" stroke="black" stroke-width="1.01125"/>
<path d="M142.413 325.944H45.9395" stroke="black" stroke-width="1.01125"/>
<path d="M144.71 336.281H49.3854" stroke="black" stroke-width="1.01125"/>
<path d="M401.554 420.12L397.378 480.711L408.863 512" stroke="black" stroke-width="1.01125"/>
<path d="M345.696 480.992L400.824 421.27L396.433 480.992H345.696Z" fill="#2E4C5C"/>
<path d="M345.02 480.89L361.582 463.764L386.467 510.852H292.865L271.618 462.041L299.919 492.335C307.002 499.917 318.673 500.909 326.934 494.632L345.02 480.89Z" fill="#2AB46F"/>
<path d="M422.171 510.853H81.5836" stroke="black" stroke-width="1.01125"/>
<path d="M359.509 340.609C372.463 327.863 387.945 312.126 395.924 302.17L436.5 330V385L395.924 426.59L352.128 377.32L315.797 411.162L255.766 332.615L298.698 320.465L293.392 342.795C291.139 352.275 303.574 361.371 313.317 361.371C332.532 361.371 345.813 354.086 359.509 340.609Z" fill="#2E4C5C"/>
<path d="M245.625 333.026L301.939 318.44L306.84 393.245L317.789 410.664L306.84 422.111L245.625 333.026Z" fill="#2AB46F"/>
<path d="M320.63 442.78L306.345 421.719M306.345 421.719L236.439 318.656L216.926 284.105H185.588H146.257V284.105C146.257 290.685 151.592 296.019 158.172 296.019H181.449L185.588 342.485L203.918 346.211V337.124L214.561 347.846L256.537 438.26C261.2 448.303 267.481 457.513 275.129 465.52L302.694 494.382C308.257 500.207 317.257 501.053 323.809 496.367L343.003 482.636C344.286 481.718 345.477 480.68 346.562 479.535L432.415 388.913M306.345 421.719L385.433 342.485" stroke="black" stroke-width="1.01125"/>
<path d="M248.862 332.8L221.646 383.214M251.682 337.432L224.466 387.846M255.01 341.513L227.286 392.478M257.242 344.585L230.106 397.11M259.473 347.657L240.13 410.407" stroke="black" stroke-width="1.01125"/>
<path d="M282.761 155.503C268.847 174.425 269.96 206.147 279.421 215.608C278.308 209.486 277.752 208.373 277.752 205.034C278.865 200.582 278.865 190.564 289.995 186.668C303.662 183.238 307.638 175.194 309.648 168.869C311.663 174.329 309.785 185.55 329.209 187.356C350.101 189.297 356.125 204.592 369.239 213.851C375.782 218.47 380.66 217.593 381.822 215.608C386.831 225.626 381.492 231.546 378.483 238.426C376.16 243.738 375.144 243.435 372.361 243.991C372.361 249.556 373.475 269.591 373.475 277.939C374.588 285.174 380.153 289.525 391.283 291.296C402.414 293.067 414.478 284.881 418.553 275.713C426.963 256.791 416.327 238.426 400.188 232.861C396.849 231.709 405.261 226.739 402.414 213.851C400.693 206.059 392.369 206.704 392.953 203.365C394.998 191.677 399.275 174.704 390.182 156.529C379.272 134.724 348.36 123.436 328.082 131.717C310.896 130.214 294.005 140.211 282.761 155.503Z" fill="#2E4C5C"/>
<path d="M372.112 243.253L373.498 283.646C373.703 289.604 377.424 294.872 382.97 297.056L395.082 301.826" stroke="black" stroke-width="1.01125" stroke-linecap="round" stroke-linejoin="round"/>
<path d="M319.501 213.101C323.815 207.234 336.452 205.65 339.16 209.039M286.808 216.26C287.625 212.836 296.285 210.844 302.152 216.26M310.423 225.31L306.954 245.854C306.263 249.94 309.678 253.55 313.796 253.088L319.501 252.449" stroke="black" stroke-width="1.01125" stroke-linecap="round" stroke-linejoin="round"/>
<path d="M307.964 266.312C309.877 266.889 326.073 266.057 334.983 255.576M334.983 255.576L335.634 256.636M334.983 255.576L334.331 254.515" stroke="black" stroke-width="1.01125" stroke-linecap="round" stroke-linejoin="round"/>
<path d="M312.883 272.58C315.703 272.892 319.302 273.576 323.364 269.966" stroke="black" stroke-width="1.01125" stroke-linecap="round" stroke-linejoin="round"/>
<path d="M277.748 205.59C277.914 210.718 283.196 230.821 283.196 230.821L283.039 240.687C282.897 249.552 285.245 258.278 289.816 265.875L299.883 282.606C306.243 293.176 319.65 297.097 330.703 291.62L344.555 284.757C356.612 278.783 365.24 267.582 367.938 254.4L370.091 243.88V243.88C373.668 244.591 377.247 242.663 378.621 239.284L382.887 228.797C386.191 220.674 380.554 211.703 371.801 211.156V211.156" stroke="black" stroke-width="1.01125" stroke-linecap="round" stroke-linejoin="round"/>
<ellipse cx="328.165" cy="223.759" rx="1.66958" ry="3.89569" transform="rotate(-5 328.165 223.759)" fill="#2E4C5C"/>
<ellipse cx="299.334" cy="226.281" rx="1.66958" ry="3.89569" transform="rotate(-5 299.334 226.281)" fill="#2E4C5C"/>
<path d="M315.863 166.174C315.456 172.169 322.811 176.628 333.611 177.471C347.111 178.524 342.992 201.628 349.779 209.017C355.953 215.739 366.196 211.491 370.77 199.918" stroke="black" stroke-width="1.01125" stroke-linecap="round" stroke-linejoin="round"/>
<path d="M310.778 162.163C311.603 171.588 276.665 176.512 278.615 197.378C279.391 205.69 291.327 204.646 290.452 198.019C289.504 190.839 279.454 187.249 278.567 196.265C278.934 206.848 282.143 220.507 274.893 224.519" stroke="black" stroke-width="1.01125" stroke-linecap="round" stroke-linejoin="round"/>
<path d="M397.662 231.398C406.446 227.239 420.549 233.56 421.889 243.993C423.085 253.307 414.447 259.339 402.967 256.793C384.697 252.74 390.657 236.967 406.158 245.726C416.88 251.784 413.541 266.81 404.837 268.48C391.004 271.133 381.993 260.483 382.376 251.784M392.95 187.227C396.103 188.154 402.252 191.679 399.628 197.801C397.004 203.923 390.167 210.044 382.376 213.384" stroke="black" stroke-width="1.01125" stroke-linecap="round" stroke-linejoin="round"/>
<path d="M292.865 321.35L315.143 314.858C320.997 313.152 325.023 307.786 325.023 301.689V293.787" stroke="black" stroke-width="1.01125" stroke-linecap="round" stroke-linejoin="round"/>
<path d="M371.575 221.432V226.6L371.822 226.719C374.231 227.88 373.62 231.469 370.963 231.768V231.768" stroke="black" stroke-width="1.01125" stroke-linecap="round" stroke-linejoin="round"/>
</svg>
