<svg width="32" height="33" viewBox="0 0 32 33" fill="none" xmlns="http://www.w3.org/2000/svg">
<g clip-path="url(#clip0_1549_435)">
<path fill-rule="evenodd" clip-rule="evenodd" d="M16.0098 8.18652C11.3985 8.18652 7.65686 11.9281 7.65686 16.5395C7.65686 21.1508 11.3985 24.8924 16.0098 24.8924C20.6121 24.8924 24.3627 21.1508 24.3627 16.5395C24.3627 11.9281 20.6121 8.18652 16.0098 8.18652ZM21.5271 12.0368C22.5236 13.2508 23.1216 14.8 23.1397 16.476C22.9042 16.4307 20.5487 15.9506 18.175 16.2495C18.1207 16.1318 18.0754 16.0049 18.021 15.8781C17.8761 15.5339 17.713 15.1805 17.5499 14.8453C20.1772 13.7763 21.3731 12.2362 21.5271 12.0368ZM16.0098 9.41863C17.8217 9.41863 19.4796 10.0981 20.7389 11.2124C20.6121 11.3936 19.534 12.8341 16.9973 13.7853C15.8286 11.6382 14.5331 9.88067 14.3338 9.60888C14.8683 9.48204 15.43 9.41863 16.0098 9.41863ZM12.9748 10.089C13.1651 10.3427 14.4334 12.1093 15.6202 14.2111C12.2863 15.099 9.34195 15.0809 9.02486 15.0809C9.48689 12.8703 10.9817 11.0312 12.9748 10.089ZM8.87084 16.5485C8.87084 16.476 8.87084 16.4036 8.87084 16.3311C9.17887 16.3401 12.6396 16.3855 16.2 15.3164C16.4084 15.715 16.5987 16.1227 16.7799 16.5304C16.6893 16.5576 16.5896 16.5848 16.499 16.6119C12.8208 17.7988 10.864 21.0421 10.7009 21.3139C9.56843 20.0546 8.87084 18.3786 8.87084 16.5485ZM16.0098 23.6784C14.361 23.6784 12.8389 23.1167 11.634 22.1745C11.7609 21.9118 13.2104 19.1214 17.2328 17.7172C17.251 17.7082 17.26 17.7082 17.2781 17.6991C18.2838 20.2992 18.6914 22.4825 18.8002 23.1077C17.9395 23.4791 16.9973 23.6784 16.0098 23.6784ZM19.987 22.4554C19.9145 22.0205 19.534 19.9368 18.6009 17.373C20.8386 17.0196 22.7954 17.5994 23.04 17.681C22.732 19.665 21.5905 21.3773 19.987 22.4554Z" fill="black"/>
</g>
<defs>
<clipPath id="clip0_1549_435">
<rect width="16.7059" height="16.7059" fill="white" transform="translate(7.65686 8.18652)"/>
</clipPath>
</defs>
</svg>
