<svg width="46" height="46" viewBox="0 0 46 46" fill="none" xmlns="http://www.w3.org/2000/svg">
<path fill-rule="evenodd" clip-rule="evenodd" d="M23 11C16.3753 11 11 16.3753 11 23C11 29.6247 16.3753 35 23 35C29.6117 35 35 29.6247 35 23C35 16.3753 29.6117 11 23 11ZM30.9262 16.5314C32.3579 18.2755 33.2169 20.5011 33.243 22.9089C32.9046 22.8438 29.5206 22.154 26.1106 22.5835C26.0325 22.4143 25.9675 22.2321 25.8894 22.0499C25.6811 21.5553 25.4468 21.0477 25.2126 20.5662C28.987 19.0304 30.705 16.8178 30.9262 16.5314ZM23 12.7701C25.603 12.7701 27.9848 13.7462 29.7939 15.3471C29.6117 15.6074 28.0629 17.6768 24.4187 19.0434C22.7397 15.9588 20.8785 13.4338 20.5922 13.0434C21.3601 12.8612 22.167 12.7701 23 12.7701ZM18.6399 13.7332C18.9132 14.0976 20.7354 16.6356 22.4403 19.6551C17.6508 20.9306 13.4208 20.9046 12.9653 20.9046C13.6291 17.7289 15.7766 15.0868 18.6399 13.7332ZM12.744 23.013C12.744 22.9089 12.744 22.8048 12.744 22.7006C13.1866 22.7137 18.1584 22.7787 23.2733 21.243C23.5727 21.8156 23.846 22.4013 24.1063 22.987C23.9761 23.026 23.833 23.0651 23.7028 23.1041C18.4187 24.8091 15.6074 29.4686 15.3731 29.859C13.7462 28.0499 12.744 25.6421 12.744 23.013ZM23 33.256C20.6312 33.256 18.4447 32.449 16.7137 31.0954C16.8959 30.718 18.9783 26.7093 24.757 24.692C24.7831 24.679 24.7961 24.679 24.8221 24.6659C26.2668 28.4013 26.8525 31.538 27.0087 32.436C25.7722 32.9696 24.4187 33.256 23 33.256ZM28.7137 31.4989C28.6095 30.8742 28.0629 27.8807 26.7224 24.1974C29.9371 23.6898 32.7484 24.5228 33.0998 24.6399C32.6573 27.4902 31.0173 29.9501 28.7137 31.4989Z" fill="#444444"/>
</svg>
