<?xml version="1.0" encoding="UTF-8"?>
<svg width="135px" height="47px" viewBox="0 0 135 47" version="1.1" xmlns="http://www.w3.org/2000/svg" xmlns:xlink="http://www.w3.org/1999/xlink">
    <!-- Generator: Sketch 57.1 (83088) - https://sketch.com -->
    <title>Group 2</title>
    <desc>Created with Sketch.</desc>
    <g id="Page-1" stroke="none" stroke-width="1" fill="none" fill-rule="evenodd">
        <g id="Desktop-HD" transform="translate(-270.000000, -713.000000)" fill="#000000" fill-rule="nonzero">
            <g id="Group" transform="translate(270.000000, 713.516111)">
                <g id="Group-2" transform="translate(0.000000, -0.000265)">
                    <path d="M21,46.4841535 C32.5979797,46.4841535 42,37.0821332 42,25.4841535 C42,13.8861737 32.5979797,4.48415348 21,4.48415348 C9.40202025,4.48415348 0,13.8861737 0,25.4841535 C0,37.0821332 9.40202025,46.4841535 21,46.4841535 Z M21,44.4841535 C10.5065898,44.4841535 2,35.9775637 2,25.4841535 C2,14.9907432 10.5065898,6.48415348 21,6.48415348 C31.4934102,6.48415348 40,14.9907432 40,25.4841535 C40,35.9775637 31.4934102,44.4841535 21,44.4841535 Z" id="Oval"></path>
                    <path d="M66.02,33.4841535 L60.66,27.2641535 L58.1,29.8641535 L58.1,33.4841535 L56.1,33.4841535 L56.1,19.4841535 L58.1,19.4841535 L58.1,27.3041535 L65.7,19.4841535 L67.98,19.4841535 L62,25.7841535 L68.36,33.4841535 L66.02,33.4841535 Z M71.84,24.6641535 C72.52,23.4241535 73.84,22.7841535 75.7,22.7841535 L75.7,24.6441535 C75.54,24.6241535 75.4,24.6241535 75.26,24.6241535 C73.2,24.6241535 71.92,25.8841535 71.92,28.2041535 L71.92,33.4841535 L70,33.4841535 L70,22.8841535 L71.84,22.8841535 L71.84,24.6641535 Z M79.02,20.8441535 C78.28,20.8441535 77.72,20.3041535 77.72,19.6041535 C77.72,18.9041535 78.28,18.3441535 79.02,18.3441535 C79.76,18.3441535 80.32,18.8841535 80.32,19.5641535 C80.32,20.2841535 79.78,20.8441535 79.02,20.8441535 Z M78.06,33.4841535 L78.06,22.8841535 L79.98,22.8841535 L79.98,33.4841535 L78.06,33.4841535 Z M89.26,22.7841535 C92.36,22.7841535 94.62,24.9441535 94.62,28.1841535 C94.62,31.4241535 92.36,33.6041535 89.26,33.6041535 C87.7,33.6041535 86.34,33.0041535 85.48,31.8041535 L85.48,33.4841535 L83.64,33.4841535 L83.64,18.6441535 L85.56,18.6441535 L85.56,24.4841535 C86.44,23.3441535 87.76,22.7841535 89.26,22.7841535 Z M89.1,31.9241535 C91.14,31.9241535 92.68,30.4441535 92.68,28.1841535 C92.68,25.9241535 91.14,24.4641535 89.1,24.4641535 C87.08,24.4641535 85.54,25.9241535 85.54,28.1841535 C85.54,30.4441535 87.08,31.9241535 89.1,31.9241535 Z M102.9,22.7841535 C106,22.7841535 108.26,24.9441535 108.26,28.1841535 C108.26,31.4241535 106,33.6041535 102.9,33.6041535 C101.34,33.6041535 99.98,33.0041535 99.12,31.8041535 L99.12,33.4841535 L97.28,33.4841535 L97.28,18.6441535 L99.2,18.6441535 L99.2,24.4841535 C100.08,23.3441535 101.4,22.7841535 102.9,22.7841535 Z M102.74,31.9241535 C104.78,31.9241535 106.32,30.4441535 106.32,28.1841535 C106.32,25.9241535 104.78,24.4641535 102.74,24.4641535 C100.72,24.4641535 99.18,25.9241535 99.18,28.1841535 C99.18,30.4441535 100.72,31.9241535 102.74,31.9241535 Z M110.92,33.4841535 L110.92,18.6441535 L112.84,18.6441535 L112.84,33.4841535 L110.92,33.4841535 Z M126.08,28.2441535 C126.08,28.4041535 126.06,28.6441535 126.04,28.8241535 L117.44,28.8241535 C117.68,30.6841535 119.18,31.9241535 121.28,31.9241535 C122.52,31.9241535 123.56,31.5041535 124.34,30.6441535 L125.4,31.8841535 C124.44,33.0041535 122.98,33.6041535 121.22,33.6041535 C117.8,33.6041535 115.52,31.3441535 115.52,28.1841535 C115.52,25.0441535 117.78,22.7841535 120.84,22.7841535 C123.9,22.7841535 126.08,24.9841535 126.08,28.2441535 Z M120.84,24.4041535 C119,24.4041535 117.64,25.6441535 117.44,27.4441535 L124.24,27.4441535 C124.04,25.6641535 122.7,24.4041535 120.84,24.4041535 Z M130.58,24.6641535 C131.26,23.4241535 132.58,22.7841535 134.44,22.7841535 L134.44,24.6441535 C134.28,24.6241535 134.14,24.6241535 134,24.6241535 C131.94,24.6241535 130.66,25.8841535 130.66,28.2041535 L130.66,33.4841535 L128.74,33.4841535 L128.74,22.8841535 L130.58,22.8841535 L130.58,24.6641535 Z" id="Kribbler"></path>
                    <path d="M23.3688614,22.9825762 L12.9475615,30.2371677 C12.7671495,30.3627581 12.6331463,30.5442954 12.5662791,30.7536998 L11.4410861,34.2774068 C11.2730873,34.8035197 11.5633962,35.3662085 12.0895091,35.5342073 C12.6156221,35.7022061 13.1783108,35.4118973 13.3463097,34.8857843 L14.3683994,31.6849603 L32.5998086,18.9935083 C33.5886838,18.3051214 32.7406524,16.7783126 31.6336551,17.2540307 L16.3114311,23.8385628 L23.1678314,1.29119947 C23.3285103,0.762804962 23.0304178,0.204200642 22.5020233,0.043521798 C21.9736288,-0.117157046 21.4150245,0.180935396 21.2543457,0.709329903 L13.7716247,25.316357 C13.5240946,26.1303628 14.3415048,26.8619685 15.1231917,26.5260485 L23.3688614,22.9825762 Z" id="Path-3"></path>
                    <path d="M23.5499819,28.1110662 C23.2565865,27.6431585 22.6394284,27.5016884 22.1715208,27.7950837 C21.7036131,28.0884791 21.5621429,28.7056372 21.8555383,29.1735449 L25.5796924,35.1128349 C25.762582,35.4045076 26.0826445,35.5815955 26.4269142,35.5815955 L30.6034796,35.5815955 C31.1557643,35.5815955 31.6034796,35.1338803 31.6034796,34.5815955 C31.6034796,34.0293108 31.1557643,33.5815955 30.6034796,33.5815955 L26.9802057,33.5815955 L23.5499819,28.1110662 Z" id="Path-4"></path>
                </g>
            </g>
        </g>
    </g>
</svg>