<svg width="46" height="46" viewBox="0 0 46 46" fill="none" xmlns="http://www.w3.org/2000/svg">
<path d="M30.6799 12.9199H15.3199C13.9951 12.9199 12.9199 13.9951 12.9199 15.3199V30.6799C12.9199 32.0047 13.9951 33.0799 15.3199 33.0799H30.6799C32.0047 33.0799 33.0799 32.0047 33.0799 30.6799V15.3199C33.0799 13.9951 32.0047 12.9199 30.6799 12.9199ZM19.1599 20.5999V29.7199H16.2799V20.5999H19.1599ZM16.2799 17.9455C16.2799 17.2735 16.8559 16.7599 17.7199 16.7599C18.5839 16.7599 19.1263 17.2735 19.1599 17.9455C19.1599 18.6175 18.6223 19.1599 17.7199 19.1599C16.8559 19.1599 16.2799 18.6175 16.2799 17.9455ZM29.7199 29.7199H26.8399C26.8399 29.7199 26.8399 25.2751 26.8399 24.9199C26.8399 23.9599 26.3599 22.9999 25.1599 22.9807H25.1215C23.9599 22.9807 23.4799 23.9695 23.4799 24.9199C23.4799 25.3567 23.4799 29.7199 23.4799 29.7199H20.5999V20.5999H23.4799V21.8287C23.4799 21.8287 24.4063 20.5999 26.2687 20.5999C28.1743 20.5999 29.7199 21.9103 29.7199 24.5647V29.7199Z" fill="#444444"/>
</svg>
