<svg width="33" height="33" viewBox="0 0 33 33" fill="none" xmlns="http://www.w3.org/2000/svg">
<path d="M12.7743 13.8359V23.8483H9.61243V13.8359H12.7743ZM9.61243 10.9217C9.61243 10.184 10.2448 9.62012 11.1933 9.62012C12.1419 9.62012 12.7374 10.184 12.7743 10.9217C12.7743 11.6595 12.184 12.255 11.1933 12.255C10.2448 12.255 9.61243 11.6595 9.61243 10.9217ZM24.3676 23.8483H21.2058C21.2058 23.8483 21.2058 18.9686 21.2058 18.5786C21.2058 17.5247 20.6788 16.4707 19.3614 16.4497H19.3192C18.044 16.4497 17.517 17.5352 17.517 18.5786C17.517 19.0582 17.517 23.8483 17.517 23.8483H14.3552V13.8359H17.517V15.1849C17.517 15.1849 18.5341 13.8359 20.5787 13.8359C22.6708 13.8359 24.3676 15.2745 24.3676 18.1887V23.8483Z" fill="black"/>
</svg>
