<svg width="242" height="52" viewBox="0 0 242 52" fill="none" xmlns="http://www.w3.org/2000/svg">
<path d="M28 47C39.598 47 49 37.598 49 26C49 14.402 39.598 5 28 5C16.402 5 7 14.402 7 26C7 37.598 16.402 47 28 47ZM28 45C17.5066 45 9 36.4934 9 26C9 15.5066 17.5066 7 28 7C38.4934 7 47 15.5066 47 26C47 36.4934 38.4934 45 28 45Z" fill="black"/>
<path d="M35 22L18.9477 31.7529C18.7673 31.8785 18.6333 32.06 18.5664 32.2694L17.4412 35.7931C17.2732 36.3192 17.5635 36.8819 18.0896 37.0499C18.6157 37.2179 19.1784 36.9276 19.3464 36.4015L20.3685 33.2007L40.5999 20.5092C41.5888 19.8208 40.7408 18.294 39.6338 18.7698L24 23.5L28.4135 13.0822C28.5742 12.5538 28.2761 11.9952 27.7477 11.8345C27.2193 11.6739 26.6607 11.972 26.5 12.5003L21.4602 24.9778C21.2127 25.7918 22.0301 26.5234 22.8118 26.1875L35 22Z" fill="black"/>
<path d="M31.55 29.6271C31.2566 29.1592 30.6394 29.0177 30.1715 29.3111C29.7036 29.6045 29.5622 30.2217 29.8555 30.6896L32.3198 36.6289C32.5027 36.9205 32.8227 37.0976 33.167 37.0976H35.6035C36.1558 37.0976 36.6035 36.6499 36.6035 36.0976C36.6035 35.5453 36.1558 35.0976 35.6035 35.0976H33.9802L31.55 29.6271Z" fill="black"/>
<path d="M58.7935 34.0002H61.3263L65.6516 21.1533H66.3599V18.5131H64.4066L58.7935 34.0002ZM61.5088 29.8145H69.9124L69.2255 27.8826H62.1957L61.5088 29.8145ZM70.0841 34.0002H72.617L67.0146 18.5131H65.7589V21.1533L70.0841 34.0002Z" fill="black"/>
<path d="M74.2969 34.0002H76.6258V27.2923C76.6258 26.6841 76.7367 26.1582 76.9585 25.7146C77.1875 25.271 77.5023 24.9276 77.903 24.6843C78.3108 24.4339 78.7938 24.3087 79.3519 24.3087C80.1819 24.3087 80.7972 24.5448 81.1979 25.017C81.5986 25.4821 81.7989 26.169 81.7989 27.0777V34.0002H84.1279V26.5732C84.1279 25.2352 83.7844 24.1906 83.0976 23.4393C82.4107 22.688 81.434 22.3124 80.1676 22.3124C79.3161 22.3124 78.6042 22.4913 78.0318 22.849C77.4665 23.1996 77.0372 23.6719 76.7439 24.2657H76.6258V22.5378H74.2969V34.0002Z" fill="black"/>
<path d="M89.8969 34.2041C90.4049 34.2041 90.8771 34.129 91.3136 33.9787C91.7572 33.8213 92.1507 33.5995 92.4941 33.3133C92.8447 33.0199 93.1309 32.6765 93.3527 32.283H93.4601V34.0002H95.789V26.1332C95.789 25.3461 95.6066 24.67 95.2417 24.1047C94.8768 23.5323 94.3545 23.0923 93.6747 22.7846C93.0022 22.4698 92.1901 22.3124 91.2384 22.3124C90.3369 22.3124 89.5463 22.4555 88.8665 22.7417C88.194 23.0279 87.6573 23.4214 87.2566 23.9223C86.856 24.416 86.6199 24.9848 86.5483 25.6288L86.5376 25.7361H88.7485L88.7699 25.661C88.8916 25.2317 89.1563 24.8882 89.5641 24.6306C89.972 24.3731 90.5015 24.2443 91.1526 24.2443C91.9039 24.2443 92.4763 24.4196 92.8698 24.7702C93.2633 25.1136 93.4601 25.6001 93.4601 26.2298V29.7393C93.4601 30.2259 93.3313 30.6659 93.0737 31.0594C92.8233 31.453 92.4763 31.7642 92.0326 31.9932C91.589 32.2221 91.0882 32.3366 90.5301 32.3366C89.9076 32.3366 89.3996 32.1899 89.0061 31.8966C88.6125 31.6032 88.4158 31.199 88.4158 30.6838V30.6623C88.4158 30.1615 88.6054 29.768 88.9846 29.4818C89.3638 29.1884 89.9255 29.0203 90.6696 28.9773L94.6407 28.7305V27.0884L90.3584 27.346C88.9989 27.4247 87.9471 27.7574 87.203 28.3441C86.4589 28.9308 86.0868 29.7286 86.0868 30.7375V30.7589C86.0868 31.4458 86.2478 32.0504 86.5698 32.5727C86.8989 33.0879 87.3497 33.4886 87.9221 33.7748C88.4945 34.061 89.1527 34.2041 89.8969 34.2041Z" fill="black"/>
<path d="M98.306 34.0002H100.635V27.2923C100.635 26.6841 100.746 26.1582 100.968 25.7146C101.197 25.271 101.512 24.9276 101.912 24.6843C102.32 24.4339 102.803 24.3087 103.361 24.3087C104.191 24.3087 104.806 24.5448 105.207 25.017C105.608 25.4821 105.808 26.169 105.808 27.0777V34.0002H108.137V26.5732C108.137 25.2352 107.794 24.1906 107.107 23.4393C106.42 22.688 105.443 22.3124 104.177 22.3124C103.325 22.3124 102.613 22.4913 102.041 22.849C101.476 23.1996 101.046 23.6719 100.753 24.2657H100.635V22.5378H98.306V34.0002Z" fill="black"/>
<path d="M114.883 34.2148C115.698 34.2148 116.41 34.0288 117.018 33.6567C117.634 33.2847 118.106 32.7731 118.435 32.122H118.553V34.0002H120.882V18.1589H118.553V24.416H118.435C118.113 23.772 117.637 23.264 117.008 22.892C116.378 22.5127 115.663 22.3231 114.861 22.3231C113.902 22.3231 113.065 22.5664 112.35 23.053C111.634 23.5323 111.08 24.2156 110.686 25.1029C110.3 25.9901 110.107 27.0419 110.107 28.2582V28.269C110.107 29.4782 110.3 30.53 110.686 31.4244C111.08 32.3116 111.634 32.9985 112.35 33.485C113.072 33.9715 113.917 34.2148 114.883 34.2148ZM115.516 32.2078C114.893 32.2078 114.353 32.0504 113.895 31.7356C113.437 31.4208 113.087 30.97 112.844 30.3833C112.6 29.7894 112.479 29.0847 112.479 28.269V28.2582C112.479 27.4426 112.6 26.7414 112.844 26.1547C113.094 25.5679 113.445 25.1172 113.895 24.8024C114.353 24.4804 114.893 24.3194 115.516 24.3194C116.131 24.3194 116.668 24.4804 117.126 24.8024C117.584 25.1243 117.938 25.5823 118.188 26.1761C118.446 26.7628 118.575 27.4569 118.575 28.2582V28.2797C118.575 29.0739 118.446 29.768 118.188 30.3618C117.938 30.9557 117.584 31.4136 117.126 31.7356C116.668 32.0504 116.131 32.2078 115.516 32.2078Z" fill="black"/>
<path d="M123.657 34.0002H125.986V27.3138C125.986 26.7056 126.097 26.1797 126.318 25.7361C126.547 25.2853 126.862 24.9347 127.263 24.6843C127.671 24.4339 128.15 24.3087 128.701 24.3087C129.531 24.3087 130.161 24.5627 130.59 25.0707C131.019 25.5715 131.234 26.2942 131.234 27.2387V34.0002H133.563V26.7557C133.563 25.8327 133.402 25.0421 133.08 24.3838C132.758 23.7184 132.296 23.2068 131.695 22.849C131.094 22.4913 130.375 22.3124 129.538 22.3124C128.694 22.3124 127.982 22.4913 127.402 22.849C126.83 23.2068 126.397 23.7076 126.104 24.3516H125.986V18.1589H123.657V34.0002Z" fill="black"/>
<path d="M139.332 34.2041C139.84 34.2041 140.312 34.129 140.749 33.9787C141.192 33.8213 141.586 33.5995 141.929 33.3133C142.28 33.0199 142.566 32.6765 142.788 32.283H142.895V34.0002H145.224V26.1332C145.224 25.3461 145.042 24.67 144.677 24.1047C144.312 23.5323 143.79 23.0923 143.11 22.7846C142.437 22.4698 141.625 22.3124 140.673 22.3124C139.772 22.3124 138.981 22.4555 138.302 22.7417C137.629 23.0279 137.092 23.4214 136.692 23.9223C136.291 24.416 136.055 24.9848 135.983 25.6288L135.973 25.7361H138.184L138.205 25.661C138.327 25.2317 138.591 24.8882 138.999 24.6306C139.407 24.3731 139.937 24.2443 140.588 24.2443C141.339 24.2443 141.911 24.4196 142.305 24.7702C142.698 25.1136 142.895 25.6001 142.895 26.2298V29.7393C142.895 30.2259 142.766 30.6659 142.509 31.0594C142.258 31.453 141.911 31.7642 141.468 31.9932C141.024 32.2221 140.523 32.3366 139.965 32.3366C139.343 32.3366 138.835 32.1899 138.441 31.8966C138.048 31.6032 137.851 31.199 137.851 30.6838V30.6623C137.851 30.1615 138.04 29.768 138.42 29.4818C138.799 29.1884 139.361 29.0203 140.105 28.9773L144.076 28.7305V27.0884L139.793 27.346C138.434 27.4247 137.382 27.7574 136.638 28.3441C135.894 28.9308 135.522 29.7286 135.522 30.7375V30.7589C135.522 31.4458 135.683 32.0504 136.005 32.5727C136.334 33.0879 136.785 33.4886 137.357 33.7748C137.93 34.061 138.588 34.2041 139.332 34.2041Z" fill="black"/>
<path d="M147.859 34.0002H150.199V18.1589H147.859V34.0002ZM155.082 34.0002H157.851L152.614 27.0884L151.004 28.6553L155.082 34.0002ZM149.877 30.1794L151.712 28.3334L152.335 27.9792L157.615 22.5378H154.868L150.306 27.3889H149.834L149.877 30.1794Z" fill="black"/>
<path d="M159.241 34.0002H161.57V27.1635C161.57 26.5983 161.681 26.1153 161.903 25.7146C162.125 25.3068 162.436 24.9955 162.837 24.7809C163.244 24.5591 163.72 24.4482 164.264 24.4482C164.486 24.4482 164.693 24.4589 164.887 24.4804C165.087 24.5018 165.262 24.534 165.412 24.577V22.4197C165.312 22.3983 165.18 22.3768 165.015 22.3553C164.851 22.3339 164.679 22.3231 164.5 22.3231C163.792 22.3231 163.194 22.5056 162.708 22.8705C162.221 23.2354 161.881 23.7398 161.688 24.3838H161.57V22.5378H159.241V34.0002Z" fill="black"/>
<path d="M167.071 34.0002H169.411V22.5378H167.071V34.0002ZM168.241 20.6381C168.634 20.6381 168.967 20.5022 169.239 20.2303C169.511 19.9512 169.647 19.6221 169.647 19.2429C169.647 18.8565 169.511 18.5274 169.239 18.2555C168.967 17.9836 168.634 17.8477 168.241 17.8477C167.854 17.8477 167.522 17.9836 167.243 18.2555C166.971 18.5274 166.835 18.8565 166.835 19.2429C166.835 19.6221 166.971 19.9512 167.243 20.2303C167.522 20.5022 167.854 20.6381 168.241 20.6381Z" fill="black"/>
<path d="M176.285 34.2256C177.194 34.2256 178.002 34.0789 178.711 33.7855C179.419 33.485 179.977 33.0664 180.385 32.5298C180.793 31.9932 180.997 31.3743 180.997 30.6731V30.6623C180.997 29.8324 180.739 29.1705 180.224 28.6768C179.716 28.1831 178.889 27.8075 177.745 27.5499L175.899 27.1206C175.276 26.9775 174.829 26.7879 174.557 26.5518C174.285 26.3085 174.149 26.008 174.149 25.6502V25.6395C174.149 25.3318 174.235 25.0635 174.407 24.8346C174.586 24.6056 174.833 24.4303 175.147 24.3087C175.469 24.1799 175.838 24.1155 176.253 24.1155C176.911 24.1155 177.433 24.2622 177.82 24.5555C178.213 24.8417 178.453 25.2102 178.539 25.661L178.55 25.7146H180.75V25.6395C180.7 25.0027 180.489 24.4339 180.117 23.933C179.744 23.4322 179.229 23.0386 178.571 22.7524C177.92 22.4591 177.151 22.3124 176.264 22.3124C175.391 22.3124 174.618 22.4591 173.945 22.7524C173.28 23.0458 172.758 23.4501 172.378 23.9652C172.006 24.4804 171.82 25.0778 171.82 25.7576V25.7683C171.82 26.6054 172.085 27.2852 172.614 27.8075C173.144 28.3298 173.952 28.7126 175.04 28.9559L176.886 29.3852C177.523 29.5354 177.974 29.7286 178.238 29.9647C178.503 30.2008 178.635 30.5014 178.635 30.8663V30.877C178.635 31.1918 178.539 31.4637 178.346 31.6927C178.152 31.9216 177.884 32.1005 177.541 32.2293C177.197 32.3581 176.789 32.4225 176.317 32.4225C175.616 32.4225 175.061 32.283 174.654 32.0039C174.246 31.7177 173.977 31.3349 173.849 30.8555L173.838 30.8019H171.509L171.52 30.8555C171.598 31.5281 171.835 32.1184 172.228 32.6264C172.629 33.1273 173.169 33.5208 173.849 33.807C174.536 34.086 175.348 34.2256 176.285 34.2256Z" fill="black"/>
<path d="M183.127 34.0002H185.456V27.3138C185.456 26.7056 185.567 26.1797 185.789 25.7361C186.018 25.2853 186.333 24.9347 186.733 24.6843C187.141 24.4339 187.621 24.3087 188.172 24.3087C189.002 24.3087 189.631 24.5627 190.06 25.0707C190.49 25.5715 190.704 26.2942 190.704 27.2387V34.0002H193.033V26.7557C193.033 25.8327 192.872 25.0421 192.55 24.3838C192.228 23.7184 191.767 23.2068 191.166 22.849C190.565 22.4913 189.846 22.3124 189.009 22.3124C188.164 22.3124 187.452 22.4913 186.873 22.849C186.3 23.2068 185.868 23.7076 185.574 24.3516H185.456V18.1589H183.127V34.0002Z" fill="black"/>
<path d="M195.54 34.0002H197.869V27.2923C197.869 26.6841 197.98 26.1582 198.201 25.7146C198.43 25.271 198.745 24.9276 199.146 24.6843C199.554 24.4339 200.037 24.3087 200.595 24.3087C201.425 24.3087 202.04 24.5448 202.441 25.017C202.841 25.4821 203.042 26.169 203.042 27.0777V34.0002H205.371V26.5732C205.371 25.2352 205.027 24.1906 204.34 23.4393C203.653 22.688 202.677 22.3124 201.41 22.3124C200.559 22.3124 199.847 22.4913 199.275 22.849C198.709 23.1996 198.28 23.6719 197.987 24.2657H197.869V22.5378H195.54V34.0002Z" fill="black"/>
<path d="M211.14 34.2041C211.648 34.2041 212.12 34.129 212.556 33.9787C213 33.8213 213.393 33.5995 213.737 33.3133C214.088 33.0199 214.374 32.6765 214.596 32.283H214.703V34.0002H217.032V26.1332C217.032 25.3461 216.849 24.67 216.484 24.1047C216.12 23.5323 215.597 23.0923 214.918 22.7846C214.245 22.4698 213.433 22.3124 212.481 22.3124C211.58 22.3124 210.789 22.4555 210.109 22.7417C209.437 23.0279 208.9 23.4214 208.499 23.9223C208.099 24.416 207.863 24.9848 207.791 25.6288L207.78 25.7361H209.991L210.013 25.661C210.134 25.2317 210.399 24.8882 210.807 24.6306C211.215 24.3731 211.744 24.2443 212.395 24.2443C213.147 24.2443 213.719 24.4196 214.113 24.7702C214.506 25.1136 214.703 25.6001 214.703 26.2298V29.7393C214.703 30.2259 214.574 30.6659 214.316 31.0594C214.066 31.453 213.719 31.7642 213.275 31.9932C212.832 32.2221 212.331 32.3366 211.773 32.3366C211.15 32.3366 210.642 32.1899 210.249 31.8966C209.855 31.6032 209.659 31.199 209.659 30.6838V30.6623C209.659 30.1615 209.848 29.768 210.227 29.4818C210.607 29.1884 211.168 29.0203 211.912 28.9773L215.883 28.7305V27.0884L211.601 27.346C210.242 27.4247 209.19 27.7574 208.446 28.3441C207.702 28.9308 207.33 29.7286 207.33 30.7375V30.7589C207.33 31.4458 207.491 32.0504 207.813 32.5727C208.142 33.0879 208.592 33.4886 209.165 33.7748C209.737 34.061 210.396 34.2041 211.14 34.2041Z" fill="black"/>
<path d="M219.549 34.0002H221.878V27.2923C221.878 26.6841 221.989 26.1582 222.211 25.7146C222.439 25.271 222.754 24.9276 223.155 24.6843C223.563 24.4339 224.046 24.3087 224.604 24.3087C225.434 24.3087 226.049 24.5448 226.45 25.017C226.851 25.4821 227.051 26.169 227.051 27.0777V34.0002H229.38V26.5732C229.38 25.2352 229.036 24.1906 228.35 23.4393C227.663 22.688 226.686 22.3124 225.42 22.3124C224.568 22.3124 223.856 22.4913 223.284 22.849C222.719 23.1996 222.289 23.6719 221.996 24.2657H221.878V22.5378H219.549V34.0002Z" fill="black"/>
</svg>
