<svg width="214" height="30" viewBox="0 0 214 30" fill="none" xmlns="http://www.w3.org/2000/svg">
<path d="M35.7524 23H37.875L42.6479 9.3999H43.2769V6.79443H41.7271L35.7524 23ZM38.459 18.3618H47.0391L46.4102 16.6436H39.0879L38.459 18.3618ZM47.5781 23H49.7007L43.7261 6.79443H42.8164V9.3999L47.5781 23Z" fill="black"/>
<path d="M51.7109 23H53.665V15.8462C53.665 15.1349 53.7923 14.5285 54.0469 14.0269C54.3089 13.5177 54.6758 13.1247 55.1475 12.8477C55.6191 12.5706 56.1732 12.4321 56.8096 12.4321C57.7754 12.4321 58.4867 12.6942 58.9434 13.2183C59.4076 13.7424 59.6396 14.5509 59.6396 15.644V23H61.5938V15.1724C61.5938 13.7424 61.2269 12.6418 60.4932 11.8706C59.7669 11.092 58.7262 10.7026 57.3711 10.7026C56.4801 10.7026 55.7427 10.8823 55.1587 11.2417C54.5822 11.5936 54.1405 12.0877 53.8335 12.7241H53.665V10.916H51.7109V23Z" fill="black"/>
<path d="M67.5908 23.2134C68.1374 23.2134 68.639 23.1385 69.0957 22.9888C69.5524 22.8315 69.9604 22.6032 70.3198 22.3037C70.6867 22.0042 70.9974 21.6411 71.252 21.2144H71.4316V23H73.3857V14.7231C73.3857 13.8846 73.2061 13.1659 72.8467 12.5669C72.4873 11.9679 71.967 11.5075 71.2856 11.1855C70.6043 10.8636 69.7695 10.7026 68.7812 10.7026C67.9202 10.7026 67.1528 10.8374 66.479 11.1069C65.8052 11.369 65.2549 11.7396 64.8281 12.2188C64.4089 12.6979 64.1506 13.2557 64.0532 13.8921L64.042 13.9595H65.9849L65.9961 13.9258C66.1533 13.4466 66.464 13.0798 66.9282 12.8252C67.3924 12.5632 67.9876 12.4321 68.7139 12.4321C69.6198 12.4321 70.2974 12.6305 70.7466 13.0273C71.2033 13.4167 71.4316 13.9857 71.4316 14.7344V18.4854C71.4316 19.0618 71.2819 19.5785 70.9824 20.0352C70.6904 20.4919 70.2861 20.855 69.7695 21.1245C69.2529 21.3866 68.6615 21.5176 67.9951 21.5176C67.2913 21.5176 66.7074 21.3491 66.2432 21.0122C65.7865 20.6678 65.5581 20.1886 65.5581 19.5747V19.5522C65.5581 18.9608 65.7677 18.5003 66.187 18.1709C66.6138 17.8415 67.2839 17.6506 68.1973 17.5981L72.4087 17.3286V15.7676L67.9614 16.0371C66.5539 16.1195 65.4683 16.4676 64.7046 17.0815C63.9409 17.688 63.5591 18.5265 63.5591 19.5972V19.6196C63.5591 20.3534 63.735 20.9897 64.0869 21.5288C64.4388 22.0679 64.918 22.4834 65.5244 22.7754C66.1383 23.0674 66.8271 23.2134 67.5908 23.2134Z" fill="black"/>
<path d="M76.1934 23H78.1475V15.8462C78.1475 15.1349 78.2747 14.5285 78.5293 14.0269C78.7913 13.5177 79.1582 13.1247 79.6299 12.8477C80.1016 12.5706 80.6556 12.4321 81.292 12.4321C82.2578 12.4321 82.9691 12.6942 83.4258 13.2183C83.89 13.7424 84.1221 14.5509 84.1221 15.644V23H86.0762V15.1724C86.0762 13.7424 85.7093 12.6418 84.9756 11.8706C84.2493 11.092 83.2087 10.7026 81.8535 10.7026C80.9626 10.7026 80.2251 10.8823 79.6411 11.2417C79.0646 11.5936 78.6229 12.0877 78.3159 12.7241H78.1475V10.916H76.1934V23Z" fill="black"/>
<path d="M93.2075 23.2134C94.0535 23.2134 94.8022 23.0262 95.4536 22.6519C96.105 22.27 96.6141 21.7422 96.981 21.0684H97.1606V23H99.1147V6.12061H97.1606V12.8252H96.981C96.6515 12.1813 96.1462 11.6685 95.4648 11.2866C94.791 10.8973 94.0386 10.7026 93.2075 10.7026C92.1893 10.7026 91.2983 10.9609 90.5347 11.4775C89.7785 11.9867 89.1908 12.7091 88.7715 13.645C88.3522 14.5809 88.1426 15.6815 88.1426 16.9468V16.9692C88.1426 18.2271 88.3522 19.3239 88.7715 20.2598C89.1908 21.1956 89.7822 21.9219 90.5459 22.4385C91.3096 22.9551 92.1968 23.2134 93.2075 23.2134ZM93.6567 21.4839C92.923 21.4839 92.2941 21.3042 91.77 20.9448C91.2459 20.578 90.8416 20.0576 90.5571 19.3838C90.2801 18.71 90.1416 17.9051 90.1416 16.9692V16.9468C90.1416 16.0034 90.2801 15.1986 90.5571 14.5322C90.8416 13.8584 91.2459 13.3418 91.77 12.9824C92.2941 12.6156 92.923 12.4321 93.6567 12.4321C94.3905 12.4321 95.0194 12.6156 95.5435 12.9824C96.075 13.3493 96.4831 13.8696 96.7676 14.5435C97.0596 15.2098 97.2056 16.0109 97.2056 16.9468V16.9692C97.2056 17.8901 97.0596 18.6912 96.7676 19.3726C96.4831 20.0464 96.075 20.5667 95.5435 20.9336C95.0194 21.3005 94.3905 21.4839 93.6567 21.4839Z" fill="black"/>
<path d="M102.068 23H104.022V15.8462C104.022 15.1424 104.15 14.536 104.404 14.0269C104.666 13.5177 105.029 13.1247 105.494 12.8477C105.965 12.5706 106.523 12.4321 107.167 12.4321C108.133 12.4321 108.844 12.6979 109.301 13.2295C109.765 13.7536 109.997 14.5622 109.997 15.6553V23H111.951V15.1948C111.951 14.2365 111.786 13.4242 111.457 12.7578C111.128 12.084 110.648 11.5749 110.02 11.2305C109.391 10.8786 108.627 10.7026 107.729 10.7026C106.838 10.7026 106.1 10.8823 105.516 11.2417C104.94 11.5936 104.498 12.0915 104.191 12.7354H104.022V6.12061H102.068V23Z" fill="black"/>
<path d="M118.061 23.2134C118.607 23.2134 119.109 23.1385 119.565 22.9888C120.022 22.8315 120.43 22.6032 120.79 22.3037C121.156 22.0042 121.467 21.6411 121.722 21.2144H121.901V23H123.855V14.7231C123.855 13.8846 123.676 13.1659 123.316 12.5669C122.957 11.9679 122.437 11.5075 121.755 11.1855C121.074 10.8636 120.239 10.7026 119.251 10.7026C118.39 10.7026 117.623 10.8374 116.949 11.1069C116.275 11.369 115.725 11.7396 115.298 12.2188C114.879 12.6979 114.62 13.2557 114.523 13.8921L114.512 13.9595H116.455L116.466 13.9258C116.623 13.4466 116.934 13.0798 117.398 12.8252C117.862 12.5632 118.457 12.4321 119.184 12.4321C120.09 12.4321 120.767 12.6305 121.216 13.0273C121.673 13.4167 121.901 13.9857 121.901 14.7344V18.4854C121.901 19.0618 121.752 19.5785 121.452 20.0352C121.16 20.4919 120.756 20.855 120.239 21.1245C119.723 21.3866 119.131 21.5176 118.465 21.5176C117.761 21.5176 117.177 21.3491 116.713 21.0122C116.256 20.6678 116.028 20.1886 116.028 19.5747V19.5522C116.028 18.9608 116.237 18.5003 116.657 18.1709C117.083 17.8415 117.754 17.6506 118.667 17.5981L122.878 17.3286V15.7676L118.431 16.0371C117.024 16.1195 115.938 16.4676 115.174 17.0815C114.411 17.688 114.029 18.5265 114.029 19.5972V19.6196C114.029 20.3534 114.205 20.9897 114.557 21.5288C114.909 22.0679 115.388 22.4834 115.994 22.7754C116.608 23.0674 117.297 23.2134 118.061 23.2134Z" fill="black"/>
<path d="M130.008 17.5869L132.434 14.9141L133.343 14.0381L140.037 6.79443H137.499L130.412 14.667H129.907L130.008 17.5869ZM128.211 23H130.232V6.79443H128.211V23ZM138.015 23H140.632L133.366 13.5327L131.973 14.9365L138.015 23Z" fill="black"/>
<path d="M142.227 23H144.181V15.5093C144.181 14.9178 144.315 14.4012 144.585 13.9595C144.854 13.5177 145.225 13.1771 145.697 12.9375C146.176 12.6904 146.722 12.5669 147.336 12.5669C147.554 12.5669 147.756 12.5781 147.943 12.6006C148.138 12.6156 148.332 12.6418 148.527 12.6792V10.7812C148.437 10.7663 148.299 10.7513 148.111 10.7363C147.932 10.7139 147.748 10.7026 147.561 10.7026C146.752 10.7026 146.071 10.8786 145.517 11.2305C144.971 11.5824 144.581 12.0765 144.349 12.7129H144.181V10.916H142.227V23Z" fill="black"/>
<path d="M149.908 23H151.862V10.916H149.908V23ZM150.896 8.59131C151.271 8.59131 151.589 8.46029 151.851 8.19824C152.113 7.92871 152.244 7.61426 152.244 7.25488C152.244 6.88053 152.113 6.56234 151.851 6.30029C151.589 6.03825 151.271 5.90723 150.896 5.90723C150.53 5.90723 150.215 6.03825 149.953 6.30029C149.691 6.56234 149.56 6.88053 149.56 7.25488C149.56 7.61426 149.691 7.92871 149.953 8.19824C150.215 8.46029 150.53 8.59131 150.896 8.59131Z" fill="black"/>
<path d="M159.072 23.2134C159.986 23.2134 160.806 23.0599 161.532 22.7529C162.265 22.446 162.842 22.0192 163.261 21.4727C163.688 20.9186 163.901 20.286 163.901 19.5747V19.5522C163.901 18.6838 163.624 17.9912 163.07 17.4746C162.516 16.958 161.67 16.5612 160.532 16.2842L158.668 15.835C157.964 15.6628 157.451 15.4419 157.129 15.1724C156.807 14.9028 156.646 14.5622 156.646 14.1504V14.1279C156.646 13.7686 156.755 13.4578 156.972 13.1958C157.189 12.9263 157.481 12.7166 157.848 12.5669C158.222 12.4097 158.649 12.3311 159.128 12.3311C159.862 12.3311 160.457 12.4808 160.914 12.7803C161.371 13.0798 161.659 13.4728 161.779 13.9595H161.79H163.699V13.9482C163.617 13.2969 163.374 12.7279 162.969 12.2412C162.572 11.7471 162.045 11.369 161.386 11.1069C160.734 10.8374 159.986 10.7026 159.14 10.7026C158.286 10.7026 157.519 10.8561 156.837 11.1631C156.164 11.4626 155.628 11.8781 155.231 12.4097C154.842 12.9412 154.647 13.5439 154.647 14.2178V14.229C154.647 15.0975 154.913 15.7938 155.445 16.3179C155.976 16.8345 156.807 17.2275 157.938 17.4971L159.813 17.9463C160.555 18.126 161.086 18.3618 161.408 18.6538C161.738 18.9383 161.902 19.2865 161.902 19.6982V19.7207C161.902 20.0876 161.783 20.4095 161.543 20.6865C161.311 20.9635 160.985 21.1844 160.566 21.3491C160.154 21.5063 159.679 21.585 159.14 21.585C158.361 21.585 157.732 21.4315 157.253 21.1245C156.781 20.8175 156.463 20.4095 156.298 19.9004H154.299C154.374 20.5667 154.618 21.1507 155.029 21.6523C155.449 22.1465 156.003 22.5321 156.691 22.8091C157.38 23.0786 158.174 23.2134 159.072 23.2134Z" fill="black"/>
<path d="M166.17 23H168.124V15.8462C168.124 15.1424 168.251 14.536 168.506 14.0269C168.768 13.5177 169.131 13.1247 169.595 12.8477C170.067 12.5706 170.625 12.4321 171.269 12.4321C172.234 12.4321 172.946 12.6979 173.402 13.2295C173.867 13.7536 174.099 14.5622 174.099 15.6553V23H176.053V15.1948C176.053 14.2365 175.888 13.4242 175.559 12.7578C175.229 12.084 174.75 11.5749 174.121 11.2305C173.492 10.8786 172.729 10.7026 171.83 10.7026C170.939 10.7026 170.202 10.8823 169.618 11.2417C169.041 11.5936 168.599 12.0915 168.292 12.7354H168.124V6.12061H166.17V23Z" fill="black"/>
<path d="M178.838 23H180.792V15.8462C180.792 15.1349 180.919 14.5285 181.174 14.0269C181.436 13.5177 181.803 13.1247 182.274 12.8477C182.746 12.5706 183.3 12.4321 183.937 12.4321C184.902 12.4321 185.614 12.6942 186.07 13.2183C186.535 13.7424 186.767 14.5509 186.767 15.644V23H188.721V15.1724C188.721 13.7424 188.354 12.6418 187.62 11.8706C186.894 11.092 185.853 10.7026 184.498 10.7026C183.607 10.7026 182.87 10.8823 182.286 11.2417C181.709 11.5936 181.267 12.0877 180.96 12.7241H180.792V10.916H178.838V23Z" fill="black"/>
<path d="M194.718 23.2134C195.264 23.2134 195.766 23.1385 196.223 22.9888C196.679 22.8315 197.087 22.6032 197.447 22.3037C197.814 22.0042 198.124 21.6411 198.379 21.2144H198.559V23H200.513V14.7231C200.513 13.8846 200.333 13.1659 199.974 12.5669C199.614 11.9679 199.094 11.5075 198.413 11.1855C197.731 10.8636 196.896 10.7026 195.908 10.7026C195.047 10.7026 194.28 10.8374 193.606 11.1069C192.932 11.369 192.382 11.7396 191.955 12.2188C191.536 12.6979 191.278 13.2557 191.18 13.8921L191.169 13.9595H193.112L193.123 13.9258C193.28 13.4466 193.591 13.0798 194.055 12.8252C194.519 12.5632 195.115 12.4321 195.841 12.4321C196.747 12.4321 197.424 12.6305 197.874 13.0273C198.33 13.4167 198.559 13.9857 198.559 14.7344V18.4854C198.559 19.0618 198.409 19.5785 198.109 20.0352C197.817 20.4919 197.413 20.855 196.896 21.1245C196.38 21.3866 195.788 21.5176 195.122 21.5176C194.418 21.5176 193.834 21.3491 193.37 21.0122C192.913 20.6678 192.685 20.1886 192.685 19.5747V19.5522C192.685 18.9608 192.895 18.5003 193.314 18.1709C193.741 17.8415 194.411 17.6506 195.324 17.5981L199.536 17.3286V15.7676L195.088 16.0371C193.681 16.1195 192.595 16.4676 191.832 17.0815C191.068 17.688 190.686 18.5265 190.686 19.5972V19.6196C190.686 20.3534 190.862 20.9897 191.214 21.5288C191.566 22.0679 192.045 22.4834 192.651 22.7754C193.265 23.0674 193.954 23.2134 194.718 23.2134Z" fill="black"/>
<path d="M203.32 23H205.274V15.8462C205.274 15.1349 205.402 14.5285 205.656 14.0269C205.918 13.5177 206.285 13.1247 206.757 12.8477C207.229 12.5706 207.783 12.4321 208.419 12.4321C209.385 12.4321 210.096 12.6942 210.553 13.2183C211.017 13.7424 211.249 14.5509 211.249 15.644V23H213.203V15.1724C213.203 13.7424 212.836 12.6418 212.103 11.8706C211.376 11.092 210.336 10.7026 208.98 10.7026C208.09 10.7026 207.352 10.8823 206.768 11.2417C206.192 11.5936 205.75 12.0877 205.443 12.7241H205.274V10.916H203.32V23Z" fill="black"/>
<path fill-rule="evenodd" clip-rule="evenodd" d="M5 6C5 5.44772 5.44772 5 6 5H11C11.5523 5 12 5.44772 12 6V23H15C15.5523 23 16 23.4477 16 24C16 24.5523 15.5523 25 15 25H11C10.4477 25 10 24.5523 10 24V16H8C7.44772 16 7 15.5523 7 15C7 14.4477 7.44772 14 8 14H10V7H7V15V24C7 24.5523 6.55228 25 6 25C5.44772 25 5 24.5523 5 24V6Z" fill="black"/>
<path fill-rule="evenodd" clip-rule="evenodd" d="M15 5C15.5523 5 16 5.44772 16 6V11H19V6C19 5.44772 19.4477 5 20 5C20.5523 5 21 5.44772 21 6V12C21 12.5523 20.5523 13 20 13H16V15H20C20.5523 15 21 15.4477 21 16V24C21 24.5523 20.5523 25 20 25C19.4477 25 19 24.5523 19 24V17H16V19.5C16 20.0523 15.5523 20.5 15 20.5C14.4477 20.5 14 20.0523 14 19.5V6C14 5.44772 14.4477 5 15 5Z" fill="black"/>
<path fill-rule="evenodd" clip-rule="evenodd" d="M24 2H2L2 28H24V2ZM2 0C0.895431 0 0 0.89543 0 2V28C0 29.1046 0.89543 30 2 30H24C25.1046 30 26 29.1046 26 28V2C26 0.895431 25.1046 0 24 0H2Z" fill="black"/>
</svg>
