<svg width="22" height="24" viewBox="0 0 22 24" fill="none" xmlns="http://www.w3.org/2000/svg">
<g clip-path="url(#clip0_3052_110138)">
<path d="M5.5 18.5V6.5C5.5 5.94772 5.94772 5.5 6.5 5.5H8.5C9.05228 5.5 9.5 5.94772 9.5 6.5V12.5M9.5 12.5V18.5H12M9.5 12.5H6.55556" stroke="black" stroke-width="1.5" stroke-linecap="round" stroke-linejoin="round"/>
<path d="M12.5 5.5V9.66667M12.5 9.66667H15.5C16.0523 9.66667 16.5 9.21895 16.5 8.66667V5.5M12.5 9.66667V12.7778M12.5 15.5V12.7778M12.5 12.7778H15.5C16.0523 12.7778 16.5 13.2255 16.5 13.7778V19" stroke="black" stroke-width="1.5" stroke-linecap="round" stroke-linejoin="round"/>
<path d="M18 1.5H4C2.5 1.5 1.5 2.5 1.5 4V20C1.5 21.5 2.5 22.5 4 22.5H18C19.5 22.5 20.5 21.5 20.5 19.5V4C20.5 2.5 19.5 1.5 18 1.5Z" stroke="black" stroke-width="1.5"/>
</g>
<defs>
<clipPath id="clip0_3052_110138">
<rect width="22" height="24" fill="white"/>
</clipPath>
</defs>
</svg>
