<svg width="170" height="24" viewBox="0 0 170 24" fill="none" xmlns="http://www.w3.org/2000/svg">
<path d="M25.5645 17.8294H27.2594L31.0707 6.96923H31.573V4.88867H30.3354L25.5645 17.8294ZM27.7258 14.1256H34.5773L34.0751 12.7536H28.228L27.7258 14.1256ZM35.0077 17.8294H36.7026L31.9317 4.88867H31.2053V6.96923L35.0077 17.8294Z" fill="black"/>
<path d="M38.3076 17.8296H39.868V12.1171C39.868 11.5491 39.9697 11.0649 40.173 10.6643C40.3822 10.2577 40.6752 9.94389 41.0519 9.7227C41.4284 9.50143 41.8709 9.39083 42.3791 9.39083C43.1503 9.39083 43.7183 9.60012 44.083 10.0186C44.4537 10.4371 44.6389 11.0828 44.6389 11.9556V17.8296H46.1994V11.579C46.1994 10.4371 45.9065 9.55828 45.3206 8.94245C44.7406 8.32071 43.9096 8.00977 42.8275 8.00977C42.116 8.00977 41.5271 8.15326 41.0608 8.44026C40.6004 8.72126 40.2477 9.11581 40.0026 9.624H39.868V8.18017H38.3076V17.8296Z" fill="black"/>
<path d="M50.989 18C51.4255 18 51.826 17.9402 52.1907 17.8207C52.5554 17.6951 52.8812 17.5128 53.1682 17.2736C53.4612 17.0345 53.7093 16.7445 53.9126 16.4038H54.056V17.8296H55.6164V11.2203C55.6164 10.5507 55.473 9.97679 55.186 9.49847C54.899 9.02015 54.4835 8.65251 53.9394 8.39538C53.3954 8.13833 52.7287 8.00977 51.9395 8.00977C51.252 8.00977 50.6392 8.11741 50.1012 8.33261C49.5631 8.54191 49.1237 8.83784 48.7829 9.2205C48.4481 9.60308 48.2419 10.0485 48.1641 10.5567L48.1551 10.6105H49.7066L49.7156 10.5836C49.8411 10.2009 50.0892 9.90804 50.4599 9.70473C50.8305 9.49552 51.3058 9.39083 51.8858 9.39083C52.6092 9.39083 53.1503 9.54926 53.509 9.86612C53.8737 10.1771 54.056 10.6314 54.056 11.2293V14.2246C54.056 14.6849 53.9364 15.0975 53.6973 15.4622C53.4641 15.8268 53.1413 16.1168 52.7287 16.332C52.3162 16.5413 51.844 16.6459 51.3118 16.6459C50.7498 16.6459 50.2836 16.5113 49.9129 16.2423C49.5482 15.9673 49.3658 15.5846 49.3658 15.0944V15.0765C49.3658 14.6042 49.5332 14.2365 49.868 13.9734C50.2088 13.7104 50.7439 13.558 51.4733 13.516L54.8362 13.3008V12.0543L51.2849 12.2695C50.161 12.3353 49.2941 12.6133 48.6842 13.1035C48.0744 13.5878 47.7695 14.2574 47.7695 15.1124V15.1303C47.7695 15.7162 47.91 16.2244 48.191 16.6548C48.472 17.0853 48.8547 17.4171 49.3389 17.6503C49.8291 17.8835 50.3791 18 50.989 18Z" fill="black"/>
<path d="M57.8574 17.8296H59.4178V12.1171C59.4178 11.5491 59.5194 11.0649 59.7227 10.6643C59.9319 10.2577 60.2249 9.94389 60.6016 9.7227C60.9782 9.50143 61.4206 9.39083 61.9288 9.39083C62.7 9.39083 63.268 9.60012 63.6327 10.0186C64.0034 10.4371 64.1888 11.0828 64.1888 11.9556V17.8296H65.7492V11.579C65.7492 10.4371 65.4562 9.55828 64.8703 8.94245C64.2903 8.32071 63.4594 8.00977 62.3772 8.00977C61.6658 8.00977 61.0769 8.15326 60.6105 8.44026C60.1502 8.72126 59.7975 9.11581 59.5523 9.624H59.4178V8.18017H57.8574V17.8296Z" fill="black"/>
<path d="M71.4449 17.9988C72.1204 17.9988 72.7183 17.8493 73.2385 17.5504C73.7586 17.2454 74.1652 16.824 74.4581 16.2859H74.6016V17.8284H76.162V4.34961H74.6016V9.70344H74.4581C74.195 9.18927 73.7915 8.77978 73.2474 8.47482C72.7094 8.16395 72.1085 8.00848 71.4449 8.00848C70.6318 8.00848 69.9203 8.21474 69.3106 8.62726C68.7067 9.03387 68.2374 9.61073 67.9026 10.3581C67.5678 11.1054 67.4004 11.9843 67.4004 12.9947V13.0126C67.4004 14.017 67.5678 14.8929 67.9026 15.6402C68.2374 16.3875 68.7097 16.9675 69.3195 17.38C69.9293 17.7925 70.6378 17.9988 71.4449 17.9988ZM71.8036 16.6177C71.2177 16.6177 70.7155 16.4742 70.297 16.1872C69.8785 15.8943 69.5556 15.4788 69.3284 14.9407C69.1073 14.4026 68.9967 13.7599 68.9967 13.0126V12.9947C68.9967 12.2413 69.1073 11.5987 69.3284 11.0665C69.5556 10.5285 69.8785 10.116 70.297 9.82897C70.7155 9.53607 71.2177 9.38954 71.8036 9.38954C72.3895 9.38954 72.8917 9.53607 73.3103 9.82897C73.7347 10.122 74.0606 10.5374 74.2877 11.0756C74.5209 11.6076 74.6375 12.2473 74.6375 12.9947V13.0126C74.6375 13.7479 74.5209 14.3876 74.2877 14.9318C74.0606 15.4698 73.7347 15.8853 73.3103 16.1783C72.8917 16.4712 72.3895 16.6177 71.8036 16.6177Z" fill="black"/>
<path d="M78.5195 17.8284H80.0799V12.1158C80.0799 11.5538 80.1821 11.0696 80.3849 10.663C80.5941 10.2564 80.884 9.9426 81.2553 9.72141C81.6314 9.50014 82.077 9.38954 82.5912 9.38954C83.3626 9.38954 83.9304 9.60179 84.2953 10.0263C84.6658 10.4448 84.8511 11.0905 84.8511 11.9634V17.8284H86.4114V11.5956C86.4114 10.8304 86.2797 10.1818 86.017 9.64962C85.7542 9.11157 85.3709 8.70504 84.8695 8.43002C84.3672 8.14902 83.7571 8.00848 83.04 8.00848C82.3285 8.00848 81.7392 8.15197 81.2729 8.43897C80.8129 8.71997 80.46 9.11756 80.2148 9.63174H80.0799V4.34961H78.5195V17.8284Z" fill="black"/>
<path d="M91.29 18C91.726 18 92.1269 17.9402 92.491 17.8207C92.8559 17.6951 93.1817 17.5128 93.4692 17.2736C93.7615 17.0345 94.0098 16.7445 94.2134 16.4038H94.3564V17.8296H95.9167V11.2203C95.9167 10.5507 95.7738 9.97679 95.4863 9.49847C95.1996 9.02015 94.7844 8.65251 94.2398 8.39538C93.696 8.13833 93.0292 8.00977 92.2403 8.00977C91.5527 8.00977 90.9402 8.11741 90.402 8.33261C89.8638 8.54191 89.4246 8.83784 89.0836 9.2205C88.7491 9.60308 88.5422 10.0485 88.4648 10.5567L88.456 10.6105H90.0076L90.0163 10.5836C90.1417 10.2009 90.3901 9.90804 90.7606 9.70473C91.1311 9.49552 91.6062 9.39083 92.1867 9.39083C92.9102 9.39083 93.4508 9.54926 93.8094 9.86612C94.1743 10.1771 94.3564 10.6314 94.3564 11.2293V14.2246C94.3564 14.6849 94.2374 15.0975 93.9978 15.4622C93.7647 15.8268 93.442 16.1168 93.0292 16.332C92.6172 16.5413 92.1444 16.6459 91.6126 16.6459C91.0504 16.6459 90.5841 16.5113 90.2136 16.2423C89.8486 15.9673 89.6666 15.5846 89.6666 15.0944V15.0765C89.6666 14.6042 89.8335 14.2365 90.1689 13.9734C90.509 13.7104 91.0448 13.558 91.7739 13.516L95.1365 13.3008V12.0543L91.5855 12.2695C90.4619 12.3353 89.5947 12.6133 88.9846 13.1035C88.3754 13.5878 88.0703 14.2574 88.0703 15.1124V15.1303C88.0703 15.7162 88.2109 16.2244 88.4919 16.6548C88.773 17.0853 89.1555 17.4171 89.6394 17.6503C90.1297 17.8835 90.6799 18 91.29 18Z" fill="black"/>
<path d="M100.83 13.5068L102.768 11.3725L103.494 10.673L108.839 4.88867H106.812L101.153 11.1752H100.75L100.83 13.5068ZM99.3955 17.8294H101.009V4.88867H99.3955V17.8294ZM107.224 17.8294H109.314L103.512 10.2694L102.4 11.3904L107.224 17.8294Z" fill="black"/>
<path d="M110.587 17.8296H112.147V11.8481C112.147 11.3757 112.254 10.9632 112.47 10.6105C112.685 10.2577 112.981 9.98574 113.358 9.79441C113.74 9.59709 114.176 9.49847 114.667 9.49847C114.841 9.49847 115.002 9.50741 115.151 9.52538C115.307 9.53736 115.462 9.55828 115.618 9.58815V8.07253C115.546 8.06063 115.436 8.04865 115.285 8.03668C115.143 8.01879 114.996 8.00977 114.846 8.00977C114.2 8.00977 113.656 8.15031 113.214 8.43131C112.778 8.71232 112.467 9.10687 112.281 9.61506H112.147V8.18017H110.587V17.8296Z" fill="black"/>
<path d="M116.721 17.8308H118.282V8.18131H116.721V17.8308ZM117.51 6.32497C117.81 6.32497 118.064 6.22034 118.273 6.01109C118.482 5.79586 118.587 5.54476 118.587 5.25778C118.587 4.95885 118.482 4.70477 118.273 4.49551C118.064 4.28626 117.81 4.18164 117.51 4.18164C117.218 4.18164 116.966 4.28626 116.757 4.49551C116.548 4.70477 116.443 4.95885 116.443 5.25778C116.443 5.54476 116.548 5.79586 116.757 6.01109C116.966 6.22034 117.218 6.32497 117.51 6.32497Z" fill="black"/>
<path d="M124.039 18C124.769 18 125.424 17.8775 126.003 17.6323C126.589 17.3873 127.049 17.0464 127.384 16.61C127.725 16.1676 127.895 15.6624 127.895 15.0944V15.0765C127.895 14.383 127.674 13.83 127.231 13.4174C126.789 13.0049 126.114 12.6881 125.205 12.4669L123.716 12.1082C123.154 11.9706 122.745 11.7943 122.487 11.579C122.23 11.3638 122.102 11.0918 122.102 10.7629V10.745C122.102 10.4581 122.189 10.2099 122.362 10.0007C122.535 9.78546 122.768 9.61801 123.062 9.49847C123.36 9.37294 123.701 9.31018 124.084 9.31018C124.67 9.31018 125.145 9.42972 125.51 9.66888C125.875 9.90804 126.105 10.2219 126.201 10.6105H126.209H127.734V10.6015C127.668 10.0814 127.474 9.62703 127.151 9.23839C126.834 8.84383 126.413 8.54191 125.887 8.33261C125.366 8.11741 124.769 8.00977 124.093 8.00977C123.411 8.00977 122.799 8.13234 122.254 8.37749C121.717 8.61665 121.289 8.94844 120.972 9.37294C120.661 9.79736 120.505 10.2786 120.505 10.8168V10.8257C120.505 11.5192 120.718 12.0753 121.143 12.4938C121.567 12.9063 122.23 13.2201 123.133 13.4354L124.631 13.7941C125.223 13.9376 125.647 14.1259 125.904 14.3591C126.168 14.5862 126.299 14.8643 126.299 15.193V15.211C126.299 15.504 126.204 15.761 126.012 15.9822C125.827 16.2034 125.567 16.3798 125.232 16.5113C124.903 16.6369 124.524 16.6997 124.093 16.6997C123.471 16.6997 122.969 16.5771 122.586 16.332C122.21 16.0868 121.956 15.761 121.824 15.3545H120.228C120.287 15.8866 120.482 16.3529 120.81 16.7535C121.146 17.1481 121.588 17.456 122.138 17.6772C122.688 17.8924 123.322 18 124.039 18Z" fill="black"/>
<path d="M129.706 17.8284H131.266V12.1158C131.266 11.5538 131.368 11.0696 131.571 10.663C131.781 10.2564 132.071 9.9426 132.441 9.72141C132.818 9.50014 133.264 9.38954 133.778 9.38954C134.548 9.38954 135.117 9.60179 135.481 10.0263C135.852 10.4448 136.038 11.0905 136.038 11.9634V17.8284H137.598V11.5956C137.598 10.8304 137.466 10.1818 137.203 9.64962C136.94 9.11157 136.557 8.70504 136.055 8.43002C135.553 8.14902 134.944 8.00848 134.226 8.00848C133.514 8.00848 132.926 8.15197 132.459 8.43897C131.999 8.71997 131.646 9.11756 131.401 9.63174H131.266V4.34961H129.706V17.8284Z" fill="black"/>
<path d="M139.823 17.8296H141.384V12.1171C141.384 11.5491 141.485 11.0649 141.689 10.6643C141.898 10.2577 142.191 9.94389 142.567 9.7227C142.944 9.50143 143.386 9.39083 143.895 9.39083C144.666 9.39083 145.234 9.60012 145.598 10.0186C145.97 10.4371 146.155 11.0828 146.155 11.9556V17.8296H147.715V11.579C147.715 10.4371 147.422 9.55828 146.836 8.94245C146.256 8.32071 145.425 8.00977 144.343 8.00977C143.631 8.00977 143.043 8.15326 142.577 8.44026C142.116 8.72126 141.763 9.11581 141.518 9.624H141.384V8.18017H139.823V17.8296Z" fill="black"/>
<path d="M152.503 18C152.939 18 153.34 17.9402 153.705 17.8207C154.069 17.6951 154.395 17.5128 154.682 17.2736C154.975 17.0345 155.223 16.7445 155.426 16.4038H155.57V17.8296H157.13V11.2203C157.13 10.5507 156.987 9.97679 156.7 9.49847C156.412 9.02015 155.997 8.65251 155.453 8.39538C154.909 8.13833 154.242 8.00977 153.453 8.00977C152.766 8.00977 152.153 8.11741 151.615 8.33261C151.077 8.54191 150.638 8.83784 150.297 9.2205C149.962 9.60308 149.756 10.0485 149.678 10.5567L149.669 10.6105H151.22L151.229 10.5836C151.355 10.2009 151.603 9.90804 151.973 9.70473C152.344 9.49552 152.82 9.39083 153.4 9.39083C154.123 9.39083 154.664 9.54926 155.023 9.86612C155.387 10.1771 155.57 10.6314 155.57 11.2293V14.2246C155.57 14.6849 155.45 15.0975 155.211 15.4622C154.978 15.8268 154.655 16.1168 154.242 16.332C153.83 16.5413 153.357 16.6459 152.825 16.6459C152.263 16.6459 151.797 16.5113 151.426 16.2423C151.062 15.9673 150.879 15.5846 150.879 15.0944V15.0765C150.879 14.6042 151.047 14.2365 151.382 13.9734C151.723 13.7104 152.258 13.558 152.987 13.516L156.35 13.3008V12.0543L152.798 12.2695C151.675 12.3353 150.808 12.6133 150.198 13.1035C149.588 13.5878 149.283 14.2574 149.283 15.1124V15.1303C149.283 15.7162 149.424 16.2244 149.705 16.6548C149.986 17.0853 150.368 17.4171 150.852 17.6503C151.343 17.8835 151.893 18 152.503 18Z" fill="black"/>
<path d="M159.373 17.8296H160.933V12.1171C160.933 11.5491 161.036 11.0649 161.238 10.6643C161.448 10.2577 161.741 9.94389 162.118 9.7227C162.495 9.50143 162.937 9.39083 163.445 9.39083C164.216 9.39083 164.784 9.60012 165.149 10.0186C165.519 10.4371 165.705 11.0828 165.705 11.9556V17.8296H167.265V11.579C167.265 10.4371 166.972 9.55828 166.387 8.94245C165.806 8.32071 164.976 8.00977 163.893 8.00977C163.182 8.00977 162.593 8.15326 162.126 8.44026C161.666 8.72126 161.313 9.11581 161.068 9.624H160.933V8.18017H159.373V17.8296Z" fill="black"/>
<path d="M5.5 18.5V6.5C5.5 5.94772 5.94772 5.5 6.5 5.5H8.5C9.05228 5.5 9.5 5.94772 9.5 6.5V12.5M9.5 12.5V18.5H12M9.5 12.5H6.55556" stroke="black" stroke-width="1.5" stroke-linecap="round" stroke-linejoin="round"/>
<path d="M12.5 5.5V9.66667M12.5 9.66667H15.5C16.0523 9.66667 16.5 9.21895 16.5 8.66667V5.5M12.5 9.66667V12.7778M12.5 15.5V12.7778M12.5 12.7778H15.5C16.0523 12.7778 16.5 13.2255 16.5 13.7778V19" stroke="black" stroke-width="1.5" stroke-linecap="round" stroke-linejoin="round"/>
<path d="M18 1.5H4C2.5 1.5 1.5 2.5 1.5 4V20C1.5 21.5 2.5 22.5 4 22.5H18C19.5 22.5 20.5 21.5 20.5 19.5V4C20.5 2.5 19.5 1.5 18 1.5Z" stroke="black" stroke-width="1.5"/>
</svg>
