<svg width="80" height="40" viewBox="0 0 80 40" fill="none" xmlns="http://www.w3.org/2000/svg">
<g clip-path="url(#clip0_1705_2958)">
<mask id="path-1-inside-1_1705_2958" fill="white">
<path fill-rule="evenodd" clip-rule="evenodd" d="M5.54839 45C15.347 45 23.2903 37.0567 23.2903 27.2581C23.2903 25.8867 23.1347 24.5516 22.8402 23.2696C21.8341 23.0924 20.7988 23 19.7419 23C9.94334 23 2 30.9433 2 40.7419C2 42.1133 2.1556 43.4484 2.4501 44.7304C3.45618 44.9076 4.49149 45 5.54839 45Z"/>
</mask>
<path d="M22.8402 23.2696L23.8148 23.0457L23.6664 22.3997L23.0137 22.2848L22.8402 23.2696ZM2.4501 44.7304L1.47548 44.9543L1.62388 45.6003L2.27665 45.7152L2.4501 44.7304ZM22.2903 27.2581C22.2903 36.5044 14.7947 44 5.54839 44V46C15.8993 46 24.2903 37.609 24.2903 27.2581H22.2903ZM21.8656 23.4935C22.1434 24.7026 22.2903 25.9625 22.2903 27.2581H24.2903C24.2903 25.8108 24.1261 24.4007 23.8148 23.0457L21.8656 23.4935ZM19.7419 24C20.7404 24 21.7177 24.0873 22.6668 24.2544L23.0137 22.2848C21.9506 22.0975 20.8572 22 19.7419 22V24ZM3 40.7419C3 31.4956 10.4956 24 19.7419 24V22C9.39105 22 1 30.3911 1 40.7419H3ZM3.42471 44.5065C3.14696 43.2974 3 42.0375 3 40.7419H1C1 42.1892 1.16423 43.5993 1.47548 44.9543L3.42471 44.5065ZM5.54839 44C4.5499 44 3.57262 43.9127 2.62355 43.7456L2.27665 45.7152C3.33975 45.9025 4.43309 46 5.54839 46V44Z" fill="#21A062" mask="url(#path-1-inside-1_1705_2958)"/>
<mask id="path-3-inside-2_1705_2958" fill="white">
<path fill-rule="evenodd" clip-rule="evenodd" d="M5.54839 4C15.347 4 23.2903 -3.94333 23.2903 -13.7419C23.2903 -15.1133 23.1347 -16.4484 22.8402 -17.7304C21.8341 -17.9076 20.7988 -18 19.7419 -18C9.94334 -18 2 -10.0567 2 -0.258064C2 1.11333 2.1556 2.44838 2.4501 3.7304C3.45618 3.90759 4.49149 4 5.54839 4Z"/>
</mask>
<path d="M22.8402 -17.7304L23.8148 -17.9543L23.6664 -18.6003L23.0137 -18.7152L22.8402 -17.7304ZM2.4501 3.7304L1.47548 3.95428L1.62388 4.60028L2.27665 4.71524L2.4501 3.7304ZM22.2903 -13.7419C22.2903 -4.49562 14.7947 3 5.54839 3V5C15.8993 5 24.2903 -3.39105 24.2903 -13.7419H22.2903ZM21.8656 -17.5065C22.1434 -16.2974 22.2903 -15.0375 22.2903 -13.7419H24.2903C24.2903 -15.1892 24.1261 -16.5993 23.8148 -17.9543L21.8656 -17.5065ZM19.7419 -17C20.7404 -17 21.7177 -16.9127 22.6668 -16.7456L23.0137 -18.7152C21.9506 -18.9025 20.8572 -19 19.7419 -19V-17ZM3 -0.258064C3 -9.50438 10.4956 -17 19.7419 -17V-19C9.39105 -19 1 -10.6089 1 -0.258064H3ZM3.42471 3.50651C3.14696 2.29742 3 1.03746 3 -0.258064H1C1 1.1892 1.16423 2.59934 1.47548 3.95428L3.42471 3.50651ZM5.54839 3C4.5499 3 3.57262 2.9127 2.62355 2.74556L2.27665 4.71524C3.33975 4.90247 4.43309 5 5.54839 5V3Z" fill="#21A062" mask="url(#path-3-inside-2_1705_2958)"/>
<path d="M3 44L9.66667 36.9825M22 24L9.66667 36.9825M9.66667 36.9825V27.5088" stroke="#21A062" stroke-linecap="round"/>
<path d="M3 3L9.66667 -4.01754M22 -17L9.66667 -4.01754M9.66667 -4.01754V-13.4912" stroke="#21A062" stroke-linecap="round"/>
<mask id="path-7-inside-3_1705_2958" fill="white">
<path fill-rule="evenodd" clip-rule="evenodd" d="M46.5484 24C56.347 24 64.2903 16.0567 64.2903 6.25807C64.2903 4.88667 64.1347 3.55162 63.8402 2.2696C62.8341 2.09241 61.7988 2 60.7419 2C50.9433 2 43 9.94334 43 19.7419C43 21.1133 43.1556 22.4484 43.4501 23.7304C44.4562 23.9076 45.4915 24 46.5484 24Z"/>
</mask>
<path d="M63.8402 2.2696L64.8148 2.04572L64.6664 1.39972L64.0137 1.28476L63.8402 2.2696ZM43.4501 23.7304L42.4755 23.9543L42.6239 24.6003L43.2767 24.7152L43.4501 23.7304ZM63.2903 6.25807C63.2903 15.5044 55.7947 23 46.5484 23V25C56.8993 25 65.2903 16.609 65.2903 6.25807H63.2903ZM62.8656 2.49349C63.1434 3.70259 63.2903 4.96254 63.2903 6.25807H65.2903C65.2903 4.8108 65.1261 3.40066 64.8148 2.04572L62.8656 2.49349ZM60.7419 3C61.7404 3 62.7177 3.0873 63.6668 3.25445L64.0137 1.28476C62.9506 1.09753 61.8572 1 60.7419 1V3ZM44 19.7419C44 10.4956 51.4956 3 60.7419 3V1C50.3911 1 42 9.39105 42 19.7419H44ZM44.4247 23.5065C44.147 22.2974 44 21.0375 44 19.7419H42C42 21.1892 42.1642 22.5993 42.4755 23.9543L44.4247 23.5065ZM46.5484 23C45.5499 23 44.5726 22.9127 43.6235 22.7456L43.2767 24.7152C44.3397 24.9025 45.4331 25 46.5484 25V23Z" fill="#21A062" mask="url(#path-7-inside-3_1705_2958)"/>
<path d="M44 23L50.6667 15.9825M63 3L50.6667 15.9825M50.6667 15.9825V6.50877" stroke="#21A062" stroke-linecap="round"/>
</g>
<defs>
<clipPath id="clip0_1705_2958">
<rect width="80" height="40" fill="white"/>
</clipPath>
</defs>
</svg>
